<svg xmlns="http://www.w3.org/2000/svg" xmlns:xlink="http://www.w3.org/1999/xlink" width="829" height="764" viewBox="0 0 829 764"><metadata><rdf:RDF xmlns:rdf="http://www.w3.org/1999/02/22-rdf-syntax-ns#" xmlns:dc="http://purl.org/dc/elements/1.1/"><rdf:Description><dc:creator>RealFaviconGenerator</dc:creator><dc:source>https://realfavicongenerator.net</dc:source></rdf:Description></rdf:RDF></metadata><path fill="#004FAA" d="M699.65 629.825C708.595 631.834 717.86 633.019 726.878 634.813C750.353 639.483 785.823 648.497 805.05 663.021C810.281 666.972 815.111 672.235 815.859 679.04C816.355 683.548 814.285 687.845 811.543 691.289C783.998 725.881 642.609 743.265 597.071 748.122C501.856 757.705 406.03 759.702 310.499 754.094C246.226 750.529 182.204 744.342 119.054 731.504C89.9674 725.591 42.3549 714.621 19.3679 695.846C14.6095 691.959 9.96323 686.581 9.44399 680.187C9.07895 675.692 11.2174 671.524 14.0034 668.145C31.8067 646.554 104.541 632.137 132.613 629.32C133.74 629.573 134.44 629.62 135.349 630.335L134.91 630.483C129.097 632.38 122.636 633.223 116.843 634.911C101.583 639.317 83.04 643.792 70.4324 653.878C50.7443 669.629 79.3414 684.789 92.3225 690.36C134.913 708.638 183.541 716.96 229.254 722.989C348.746 738.926 469.8 739.282 589.383 724.049C635.386 718.094 681.986 709.544 725.696 693.874C737.086 689.791 769.423 676.23 761.65 660.986C753.435 644.874 713.241 634.483 696.94 631.488C698.191 631.272 698.642 630.68 699.65 629.825Z"></path><path fill="#004FAA" d="M117.998 664.803C120.115 657.289 125.112 652.799 131.778 649.106C154.92 636.281 202.386 630.011 229.198 627.776L228.636 628.034C223.503 630.358 218.487 630.708 213.295 632.279C198.732 636.688 175.342 639.79 169.048 655.697C178.99 678.01 234.397 688.391 256.215 692.678C310.563 703.357 366.77 705.948 422.059 705.603C481.178 705.406 539.26 700.99 596.813 686.905C632.302 678.22 699.896 656.042 623.187 634.511C615.851 632.452 609.321 630.952 601.799 629.634L604.023 628.318C627.565 631.041 657.912 634.675 679.674 642.752C761.028 672.948 650.608 698.182 625.697 702.985C583.186 711.182 543.341 715.91 501.451 718.753C433.553 723.617 365.368 722.84 297.598 716.431C272.435 714.226 247.366 711.051 222.448 706.913C198.563 702.829 134.716 690.633 121.157 671.395C119.732 669.372 118.726 667.166 117.998 664.803Z"></path><path fill="#0174C3" d="M605.302 645.626C605.449 645.744 605.6 645.858 605.743 645.981C607.059 647.107 608.045 649.185 608.156 650.909C608.332 653.626 606.551 656.307 604.824 658.246C584.153 681.443 492.572 687.324 461.379 689.031C438.887 690.305 416.353 690.705 393.83 690.229C356.837 689.414 251.26 683.403 224.766 659.657C221.223 656.07 219.032 650.99 223.129 646.804C224.607 647.315 226.771 651.103 227.87 651.701C236.781 656.55 257.209 659.644 267.084 661.468C288.005 665.322 309.057 668.424 330.2 670.769C351.68 673.293 374.776 675.619 396.46 676.409C439.008 677.636 481.578 674.899 523.619 668.235C537.518 666.073 551.382 663.688 565.205 661.082C575.23 659.179 587.316 657.181 596.618 653.047C600.62 651.268 602.779 649.088 605.302 645.626Z"></path><path fill="#005EDC" d="M684.308 627.832L699.65 629.825C698.642 630.68 698.191 631.272 696.94 631.488C692.762 630.576 688.201 629.589 684.308 627.832Z"></path><path fill="#005EDC" fill-opacity="0.96470588" d="M132.613 629.32C136.58 628.705 139.207 628.354 143.274 628.135C141.372 628.83 137.335 630.314 135.349 630.335C134.44 629.62 133.74 629.573 132.613 629.32Z"></path><path fill="#005EDC" fill-opacity="0.98431373" d="M601.799 629.634C601.229 629.541 600.144 629.226 599.538 629.072L599.319 628.62C601.057 627.941 602.154 628.187 604.023 628.318L601.799 629.634Z"></path><defs><linearGradient id="gradient_0" gradientUnits="userSpaceOnUse" x1="356.13043" y1="628.22827" x2="439.73737" y2="91.601929"><stop offset="0" stop-color="#00137D"></stop><stop offset="1" stop-color="#0054D3"></stop></linearGradient></defs><path fill="url(#gradient_0)" d="M414.239 0L414.64 0C426.655 13.699 438.865 29.5288 450.112 43.9522C478.24 80.0735 504.833 117.365 529.819 155.728C530.535 156.765 532.005 158.76 532.477 159.82C533.784 161.693 535.198 163.558 536.159 165.621C539.882 170.475 544.052 178.026 547.34 183.307C558.291 201.105 568.72 219.218 578.614 237.624C581.588 243.187 587.559 255.572 590.546 260.284C594.459 245.178 597.355 228.183 596.92 212.528C597.192 206.216 596.098 198.121 594.28 192.097C598.027 194.916 601.747 197.771 605.438 200.664C607.314 202.208 609.206 203.749 611.07 205.314C639.349 229.051 662.499 262.487 673.76 297.734C686.264 336.874 682.774 384.592 648.368 411.86C646.285 413.352 643.876 414.917 642.21 416.811C644.889 415.369 646.926 414.009 649.468 412.317C662.366 403.203 673.307 394.595 684.174 382.972C689.713 377.049 694.545 370.344 700.451 364.865C703.753 400.236 702.707 425.874 689.549 458.845C683.294 474.873 674.484 489.782 663.46 502.991C645.515 524.657 623.308 538.879 596.578 547.246C592.996 549.452 562.778 549.661 555.661 550.445C556.691 548.961 557.941 547.595 558.082 545.879C547.322 559.485 536.549 572.752 524.027 584.838C501.137 606.931 473.304 626.051 443.172 636.664C436.022 639.182 428.832 641.633 421.64 643.946C415.422 646.652 400.934 649.414 393.951 649.441C392.092 649.431 388.473 649.703 387.491 647.921C387.667 646.923 388.029 646.197 388.419 645.268C389.267 644.645 389.564 644.474 390.065 643.549C384.409 645.878 380.478 647.199 374.427 648.79C370.439 649.547 366.983 650.152 362.898 650.379L361.408 649.461C373.771 645.92 380.762 642.582 391.273 634.928C386.836 633.854 379.059 630.164 376.344 629.929L376.411 631.873C376.037 632.494 375.668 633.213 374.806 633.261C368.475 633.616 346.795 622.431 342.614 619.22C340.04 617.753 339.027 617.053 336.694 615.219C311.082 597.918 297.907 583.602 280.621 558.785C280.631 558.964 280.632 559.144 280.649 559.322C281.154 564.693 295.647 577.074 294.429 580.674C293.053 581.548 293.298 581.716 292.011 581.612C288.032 578.304 279.281 566.682 275.96 564.337C271.753 562.781 259.479 546.549 255.415 541.979C249.375 543.364 243.348 544.27 237.172 544.735C231.055 545.196 226.32 542.521 220.682 541.411C216.406 538.89 209.169 537.223 204.259 534.58C154.496 507.792 128.143 451.363 126.991 396.376C126.763 385.528 127.859 375.529 129.039 364.791C143.016 382.515 159.018 398.074 178.414 409.804C180.786 411.311 184.459 413.853 186.98 414.746C185.307 412.93 181.732 410.737 179.562 409.279C166.822 398.106 159.137 387.747 153.719 371.473C143.012 339.307 150.47 301.73 165.629 272.059C180.061 242.833 200.989 217.298 226.81 197.41C229.636 195.181 231.677 193.621 234.686 191.657C234.043 194.708 233.417 197.636 232.924 200.722C229.949 219.229 230.074 234.033 232.58 252.35C233.457 257.193 234.405 262.023 235.422 266.838C242.912 254.303 250.011 237.099 257.824 223.358C280.426 183.36 305.12 144.582 331.804 107.186C339.247 96.7167 347.82 84.0942 355.714 74.1478C356.704 72.2391 365.692 60.5588 367.715 57.871C378.029 44.1486 388.582 30.6078 399.369 17.2548C403.731 11.9586 409.574 4.65213 414.239 0Z"></path><defs><linearGradient id="gradient_1" gradientUnits="userSpaceOnUse" x1="302.56601" y1="155.05701" x2="438.61511" y2="79.983368"><stop offset="0" stop-color="#0B8DEF"></stop><stop offset="1" stop-color="#3BC8FE"></stop></linearGradient></defs><path fill="url(#gradient_1)" d="M410.296 24.4467C411.148 27.9971 405.849 39.16 404.038 42.8488C397.342 53.4454 390.116 66.3127 384.135 77.3172C377.342 89.814 368.774 105.136 363.319 118.097C361.261 121.311 354.148 138.663 352.748 142.838C345.17 158.795 336.213 192.507 332.997 209.796C327.571 204.234 324.046 190.012 321.12 182.653C320.104 180.096 318.876 178.168 317.589 175.745C318.562 176.364 320.436 179.317 321.505 180.584C320.534 177.448 319.74 173.768 318.432 170.872L316.577 174.195L315.93 174.094C318.166 168.502 324.535 157.048 327.587 151.558C337.873 133.224 348.752 115.227 360.206 97.5983C375.71 72.8742 392.301 47.3331 410.296 24.4467Z"></path><defs><linearGradient id="gradient_2" gradientUnits="userSpaceOnUse" x1="356.97086" y1="524.03082" x2="439.31927" y2="174.79497"><stop offset="0" stop-color="#0039C2"></stop><stop offset="1" stop-color="#1B85FA"></stop></linearGradient></defs><path fill="url(#gradient_2)" d="M414.262 18.9899L425 32.6657L424.886 33.4142L423.696 33.1878C422.723 36.5534 427.45 41.2902 428.618 44.3851C431.429 48.001 435.865 55.2474 438.807 59.5116C453.234 80.227 466.558 101.69 478.723 123.81C484.359 133.929 489.471 144.331 494.041 154.974C498.468 163.272 502.978 178.013 506.668 187.019C507.862 189.933 509.14 196.19 510.318 198.486L510.732 198.376C511.61 199.493 512.209 201.729 512.688 203.159C520.255 198.819 517.334 201.373 522.011 194C523.941 196.46 524.07 197.101 527.27 196.887C547.826 242.936 563.204 298.07 523.382 339.406C511.7 351.532 497.777 357.314 486.512 370.935C461.555 401.112 441.756 434.17 431.233 472.17C425.546 492.707 419.238 521.163 396.014 528.436C374.293 534.813 355.153 522.961 341.177 507.662C316.716 480.887 319.249 448.092 316.325 414.566C315.336 403.222 313.345 390.88 310.868 379.651C308.593 369.456 305.472 359.47 301.536 349.795C296.888 338.124 291.275 325.999 287.612 314.021C274.404 270.822 291.072 226.174 309.559 187.277C311.663 182.85 313.598 178.423 315.93 174.094L316.577 174.195L318.432 170.872C319.74 173.768 320.534 177.448 321.505 180.584C320.436 179.317 318.562 176.364 317.589 175.745C318.876 178.168 320.104 180.096 321.12 182.653C324.046 190.012 327.571 204.234 332.997 209.796C336.213 192.507 345.17 158.795 352.748 142.838C354.148 138.663 361.261 121.311 363.319 118.097C368.774 105.136 377.342 89.814 384.135 77.3172C390.116 66.3127 397.342 53.4454 404.038 42.8488C405.849 39.16 411.148 27.9971 410.296 24.4467C411.591 22.6172 412.873 20.746 414.262 18.9899Z"></path><defs><linearGradient id="gradient_3" gradientUnits="userSpaceOnUse" x1="426.20316" y1="303.28217" x2="419.42682" y2="142.69209"><stop offset="0" stop-color="#1978EF"></stop><stop offset="1" stop-color="#38C9FC"></stop></linearGradient></defs><path fill="url(#gradient_3)" d="M414.262 18.9899L425 32.6657L424.886 33.4142L423.696 33.1878C422.723 36.5534 427.45 41.2902 428.618 44.3851C431.429 48.001 435.865 55.2474 438.807 59.5116C453.234 80.227 466.558 101.69 478.723 123.81C484.359 133.929 489.471 144.331 494.041 154.974C498.468 163.272 502.978 178.013 506.668 187.019C507.862 189.933 509.14 196.19 510.318 198.486C514.018 212.909 520.3 239.654 517.607 254.551C513.414 260.124 509.257 259.998 504.409 263.661C497.873 268.6 493.474 271.007 486.228 274.378C482.233 276.236 476.058 283.916 471.724 286.208C458.972 295.384 440.275 301.341 424.814 303.678C421.123 304.235 407.389 305.143 403.548 304.064C389.22 300.041 372.034 290.002 359.411 281.805C357.057 280.276 353.851 276.949 351.485 275.504C345.474 271.833 338.043 268.873 331.538 266.332C328.535 249.624 329.575 226.393 332.997 209.796C336.213 192.507 345.17 158.795 352.748 142.838C354.148 138.663 361.261 121.311 363.319 118.097C368.774 105.136 377.342 89.814 384.135 77.3172C390.116 66.3127 397.342 53.4454 404.038 42.8488C405.849 39.16 411.148 27.9971 410.296 24.4467C411.591 22.6172 412.873 20.746 414.262 18.9899Z"></path><defs><linearGradient id="gradient_4" gradientUnits="userSpaceOnUse" x1="422.99847" y1="73.89064" x2="417.97128" y2="163.96301"><stop offset="0" stop-color="#65EBF8"></stop><stop offset="1" stop-color="#30C6FC"></stop></linearGradient></defs><path fill="url(#gradient_4)" d="M414.262 18.9899L425 32.6657L424.886 33.4142L423.696 33.1878C422.723 36.5534 427.45 41.2902 428.618 44.3851C431.429 48.001 435.865 55.2474 438.807 59.5116C453.234 80.227 466.558 101.69 478.723 123.81C476.756 124.145 475.156 126.689 472.734 126.31C472.811 129.101 473.501 129.39 473.738 131.262C474.772 134.506 478.455 139.384 479.339 142.001C479.336 142.828 479.337 143.481 479.393 144.304C476.865 148.663 469.751 148.39 465.572 150.2C462.315 151.611 459.173 153.571 456.013 155.188C441.446 163.141 434.364 166.962 417.289 164.21C407.051 162.56 407.842 163.129 398.858 158.364C393.524 155.535 379.736 145.895 375.429 144.908C377.867 147.209 382.364 149.204 383.174 151.898C382.901 152.74 383.09 152.791 382.335 153.055C375.946 155.29 365.66 155.545 358.848 155.983L358.369 155.564C358.807 154.349 359.24 152.775 359.629 151.512C360.628 150.076 360.884 149.929 360.205 148.461C358.391 150.75 358.504 153.905 355.826 155.035C355.579 155.037 350.078 153.652 349.646 153.514C349.926 149.806 352.355 146.95 352.748 142.838C354.148 138.663 361.261 121.311 363.319 118.097C368.774 105.136 377.342 89.814 384.135 77.3172C390.116 66.3127 397.342 53.4454 404.038 42.8488C405.849 39.16 411.148 27.9971 410.296 24.4467C411.591 22.6172 412.873 20.746 414.262 18.9899Z"></path><defs><linearGradient id="gradient_5" gradientUnits="userSpaceOnUse" x1="421.42404" y1="123.57161" x2="427.57645" y2="36.144794"><stop offset="0" stop-color="#5CD9FA"></stop><stop offset="1" stop-color="#ACFFFC"></stop></linearGradient></defs><path fill="url(#gradient_5)" d="M414.262 18.9899L425 32.6657L424.886 33.4142L423.696 33.1878C422.723 36.5534 427.45 41.2902 428.618 44.3851C431.429 48.001 435.865 55.2474 438.807 59.5116C453.234 80.227 466.558 101.69 478.723 123.81C476.756 124.145 475.156 126.689 472.734 126.31C472.811 129.101 473.501 129.39 473.738 131.262C463.745 114.569 448.271 83.8889 430.774 76.0289C398.249 61.4182 380.839 100.098 370.573 123.545L370.398 123.347C370.219 122.028 371.28 121.182 371.368 120.646C371.912 117.34 367.75 119.092 365.969 114.519C365.016 115.814 364.648 116.651 363.925 118.103L363.319 118.097C368.774 105.136 377.342 89.814 384.135 77.3172C390.116 66.3127 397.342 53.4454 404.038 42.8488C405.849 39.16 411.148 27.9971 410.296 24.4467C411.591 22.6172 412.873 20.746 414.262 18.9899Z"></path><path fill="#53D4F9" d="M414.262 18.9899L425 32.6657L424.886 33.4142L423.696 33.1878C422.723 36.5534 427.45 41.2902 428.618 44.3851C422.994 39.9835 419.885 39.5606 414.533 33.8743C411.387 37.4034 409.004 42.4754 404.038 42.8488C405.849 39.16 411.148 27.9971 410.296 24.4467C411.591 22.6172 412.873 20.746 414.262 18.9899Z"></path><path fill="#53D4F9" d="M363.319 118.097L363.925 118.103C364.648 116.651 365.016 115.814 365.969 114.519C367.75 119.092 371.912 117.34 371.368 120.646C371.28 121.182 370.219 122.028 370.398 123.347L370.573 123.545C368.065 130.369 361.732 141.991 360.205 148.461C358.391 150.75 358.504 153.905 355.826 155.035C355.579 155.037 350.078 153.652 349.646 153.514C349.926 149.806 352.355 146.95 352.748 142.838C354.148 138.663 361.261 121.311 363.319 118.097Z"></path><path fill="#53D4F9" d="M478.723 123.81C484.359 133.929 489.471 144.331 494.041 154.974C494.307 156.923 495.386 158.775 495.581 160.54C495.779 162.33 493.022 163.457 491.364 164.965L491.101 165.208C487.098 157.541 483.425 149.762 479.339 142.001C478.455 139.384 474.772 134.506 473.738 131.262C473.501 129.39 472.811 129.101 472.734 126.31C475.156 126.689 476.756 124.145 478.723 123.81Z"></path><path fill="#33B6F3" d="M358.369 155.564L356.44 160.046L356.516 159.8L355.66 160.804L355.606 161.249C355.309 159.188 358.557 153.528 359.629 151.512C359.24 152.775 358.807 154.349 358.369 155.564Z"></path><defs><linearGradient id="gradient_6" gradientUnits="userSpaceOnUse" x1="554.50867" y1="549.50195" x2="479.86493" y2="459.0311"><stop offset="0" stop-color="#30B021"></stop><stop offset="1" stop-color="#ADE62A"></stop></linearGradient></defs><path fill="url(#gradient_6)" d="M605.438 200.664C607.314 202.208 609.206 203.749 611.07 205.314C639.349 229.051 662.499 262.487 673.76 297.734C686.264 336.874 682.774 384.592 648.368 411.86C646.285 413.352 643.876 414.917 642.21 416.811C644.889 415.369 646.926 414.009 649.468 412.317C662.366 403.203 673.307 394.595 684.174 382.972C689.713 377.049 694.545 370.344 700.451 364.865C703.753 400.236 702.707 425.874 689.549 458.845C683.294 474.873 674.484 489.782 663.46 502.991C645.515 524.657 623.308 538.879 596.578 547.246C592.996 549.452 562.778 549.661 555.661 550.445C556.691 548.961 557.941 547.595 558.082 545.879C547.322 559.485 536.549 572.752 524.027 584.838C501.137 606.931 473.304 626.051 443.172 636.664C436.022 639.182 428.832 641.633 421.64 643.946C415.422 646.652 400.934 649.414 393.951 649.441C392.092 649.431 388.473 649.703 387.491 647.921C387.667 646.923 388.029 646.197 388.419 645.268C389.267 644.645 389.564 644.474 390.065 643.549C390.875 642.868 396.605 639.992 397.751 639.479C400.516 637.781 402.92 635.944 405.512 634.014C408.815 631.07 412.604 627.95 415.692 624.814C430.532 609.744 442.803 589.081 446.625 568.17C448.654 557.067 448.885 546.242 449.206 535.029C449.404 528.104 449.947 521.216 450 514.338C456.325 525.422 459.104 525.9 468.132 534.415L468.748 534.658C471.996 531.165 467.01 503.327 466.22 497.012L467.194 497.907C469.515 498.313 480.122 492.647 482.875 491.481C517.499 476.829 547.125 452.202 564.757 418.677C568.592 411.385 571.861 404.047 577.807 398.117C588.826 387.129 596.701 371.984 602.693 357.718C607.785 354.011 623.534 340.391 627.738 338.396C628.451 339.213 628.266 339.763 628.423 341.084C629.34 336.174 629.2 326.759 629.174 321.549C629.137 301.836 627.208 282.172 623.412 262.828C621.951 255.701 619.769 249.001 618.227 242.034C616.796 237.116 614.518 232.089 612.982 227.049C614.838 223.508 609.316 214.875 608.083 211.023C607.59 209.982 604.913 206.072 604.141 204.893L603.851 203.883C603.351 202.096 603.068 202.108 603.744 200.908L605.438 200.664Z"></path><path fill="#31AD31" d="M605.438 200.664C607.314 202.208 609.206 203.749 611.07 205.314C639.349 229.051 662.499 262.487 673.76 297.734C686.264 336.874 682.774 384.592 648.368 411.86C646.285 413.352 643.876 414.917 642.21 416.811C644.889 415.369 646.926 414.009 649.468 412.317C662.366 403.203 673.307 394.595 684.174 382.972C689.713 377.049 694.545 370.344 700.451 364.865C703.753 400.236 702.707 425.874 689.549 458.845C683.294 474.873 674.484 489.782 663.46 502.991C645.515 524.657 623.308 538.879 596.578 547.246C592.996 549.452 562.778 549.661 555.661 550.445C556.691 548.961 557.941 547.595 558.082 545.879C558.717 544.634 562.738 539.329 563.772 537.792C568.3 531.06 573.097 524.452 577.512 517.635C590.958 496.739 602.323 474.575 611.443 451.461C619.928 430.233 626.412 408.258 630.809 385.823C638.421 346.219 640.724 279.674 624.521 242.131C623.047 243.364 623.097 243.768 621.568 243.884C620.661 243.136 620.675 242.896 620.224 241.813L619.953 240.777L619.456 240.681L618.227 242.034C616.796 237.116 614.518 232.089 612.982 227.049C614.838 223.508 609.316 214.875 608.083 211.023C607.59 209.982 604.913 206.072 604.141 204.893L603.851 203.883C603.351 202.096 603.068 202.108 603.744 200.908L605.438 200.664Z"></path><path fill="#E0F050" d="M608.083 211.023C614.31 217.829 620.789 233.073 624.521 242.131C623.047 243.364 623.097 243.768 621.568 243.884C620.661 243.136 620.675 242.896 620.224 241.813L619.953 240.777L619.456 240.681L618.227 242.034C616.796 237.116 614.518 232.089 612.982 227.049C614.838 223.508 609.316 214.875 608.083 211.023Z"></path><path fill="#B3E534" d="M618.227 242.034L619.456 240.681L619.953 240.777L620.224 241.813C620.675 242.896 620.661 243.136 621.568 243.884C623.097 243.768 623.047 243.364 624.521 242.131C640.724 279.674 638.421 346.219 630.809 385.823C626.412 408.258 619.928 430.233 611.443 451.461C602.323 474.575 590.958 496.739 577.512 517.635C573.097 524.452 568.3 531.06 563.772 537.792C562.738 539.329 558.717 544.634 558.082 545.879C547.322 559.485 536.549 572.752 524.027 584.838C501.137 606.931 473.304 626.051 443.172 636.664C436.022 639.182 428.832 641.633 421.64 643.946L421.179 643.634C422.599 642.495 439.589 637.989 441.504 635.923L441.195 635.561C440.159 635.758 439.273 636.05 438.269 636.355L438.353 636.06C443.53 633.764 449.462 630.182 454.41 627.305C466.608 620.362 478.35 612.647 489.564 604.206C545.761 561.078 589.404 495.049 611.674 428.036C619.552 404.329 623.549 384.266 626.765 359.805C627.597 353.459 627.729 347.381 628.423 341.084C629.34 336.174 629.2 326.759 629.174 321.549C629.137 301.836 627.208 282.172 623.412 262.828C621.951 255.701 619.769 249.001 618.227 242.034Z"></path><path fill="#E0F050" d="M618.227 242.034L619.456 240.681L619.953 240.777L620.224 241.813C619.333 244.019 625.367 269.017 626.229 273.872C630.83 299.794 630.608 325.585 628.692 351.744C628.55 353.686 627.997 360.625 627.241 361.758C626.929 360.854 626.862 360.745 626.765 359.805C627.597 353.459 627.729 347.381 628.423 341.084C629.34 336.174 629.2 326.759 629.174 321.549C629.137 301.836 627.208 282.172 623.412 262.828C621.951 255.701 619.769 249.001 618.227 242.034Z"></path><path fill="#31AD31" d="M405.512 634.014L405.663 635.016C403.803 637.032 400.604 639.572 397.751 639.479C400.516 637.781 402.92 635.944 405.512 634.014Z"></path><path fill="#68CB2A" d="M226.81 197.41C229.044 201.215 224.971 209.381 222.461 212.622L221.616 212.955L221.941 215.514C217.627 225.475 214.771 232.556 212.04 243.066C205.979 263.963 202.746 305.938 205.34 327.789C206.458 329.809 207.25 350.597 207.943 355.225C211.222 377.099 214.418 395.529 220.65 416.98C222.37 422.9 224.03 429.113 226.36 434.822C228.845 440.935 230.713 447.356 233.261 453.475C238.018 464.899 242.31 476.508 247.547 487.782C266.548 528.687 290.604 568.98 322.609 601.05C326.725 605.174 332.398 610.694 336.945 613.947C336.902 614.19 336.776 615.026 336.694 615.219C311.082 597.918 297.907 583.602 280.621 558.785C280.631 558.964 280.632 559.144 280.649 559.322C281.154 564.693 295.647 577.074 294.429 580.674C293.053 581.548 293.298 581.716 292.011 581.612C288.032 578.304 279.281 566.682 275.96 564.337C271.753 562.781 259.479 546.549 255.415 541.979C249.375 543.364 243.348 544.27 237.172 544.735C231.055 545.196 226.32 542.521 220.682 541.411C216.406 538.89 209.169 537.223 204.259 534.58C154.496 507.792 128.143 451.363 126.991 396.376C126.763 385.528 127.859 375.529 129.039 364.791C143.016 382.515 159.018 398.074 178.414 409.804C180.786 411.311 184.459 413.853 186.98 414.746C185.307 412.93 181.732 410.737 179.562 409.279C166.822 398.106 159.137 387.747 153.719 371.473C143.012 339.307 150.47 301.73 165.629 272.059C180.061 242.833 200.989 217.298 226.81 197.41Z"></path><defs><linearGradient id="gradient_7" gradientUnits="userSpaceOnUse" x1="214.09863" y1="401.22226" x2="166.57457" y2="518.9137"><stop offset="0" stop-color="#4BCD2D"></stop><stop offset="1" stop-color="#0A7E4A"></stop></linearGradient></defs><path fill="url(#gradient_7)" d="M129.039 364.791C143.016 382.515 159.018 398.074 178.414 409.804C180.786 411.311 184.459 413.853 186.98 414.746C192.999 420.444 205.543 451.967 210.253 460.688C212.347 464.564 215.162 468.822 217.28 472.698C219.455 476.681 221.347 480.986 223.692 485.023C228.236 492.846 232.171 499.183 235.501 507.678L234.093 512.982C246.825 531.515 263.341 546.601 275.96 564.337C271.753 562.781 259.479 546.549 255.415 541.979C249.375 543.364 243.348 544.27 237.172 544.735C231.055 545.196 226.32 542.521 220.682 541.411C216.406 538.89 209.169 537.223 204.259 534.58C154.496 507.792 128.143 451.363 126.991 396.376C126.763 385.528 127.859 375.529 129.039 364.791Z"></path><path fill="#B3E534" d="M226.81 197.41C229.044 201.215 224.971 209.381 222.461 212.622L221.616 212.955L221.941 215.514C217.627 225.475 214.771 232.556 212.04 243.066C205.979 263.963 202.746 305.938 205.34 327.789C206.458 329.809 207.25 350.597 207.943 355.225C211.222 377.099 214.418 395.529 220.65 416.98C222.37 422.9 224.03 429.113 226.36 434.822C228.845 440.935 230.713 447.356 233.261 453.475C238.018 464.899 242.31 476.508 247.547 487.782C266.548 528.687 290.604 568.98 322.609 601.05C326.725 605.174 332.398 610.694 336.945 613.947C336.902 614.19 336.776 615.026 336.694 615.219C311.082 597.918 297.907 583.602 280.621 558.785C280.294 557.756 278.383 554.988 277.677 553.915C241.829 499.466 214.812 437.938 202.541 373.767C201.167 366.581 199.148 360.555 198.881 353.065L198.337 349.103C196.325 347.33 192.314 344.82 190.847 342.896C175.765 323.128 171.445 297.961 167.418 274.07C167.205 272.81 166.638 272.551 165.629 272.059C180.061 242.833 200.989 217.298 226.81 197.41Z"></path><path fill="#F7F994" d="M197.099 330.312C197.293 328.079 196.896 324.043 196.779 321.695C195.438 293.905 197.322 264.535 206.546 238.085C209.015 231.004 214.922 220.57 219.116 214.236C219.847 213.132 220.437 213.031 221.616 212.955L221.941 215.514C217.627 225.475 214.771 232.556 212.04 243.066C205.979 263.963 202.746 305.938 205.34 327.789C203.023 327.108 203.36 325.772 199.734 326.086C198.269 327.031 198.063 327.872 197.938 329.556L197.099 330.312Z"></path><path fill="#E0F050" d="M198.337 349.103C198.229 346.346 197.99 343.347 198.462 340.651C198.763 344.444 200.624 350.624 198.881 353.065L198.337 349.103Z"></path><path fill="#B3E534" d="M594.28 192.097C598.027 194.916 601.747 197.771 605.438 200.664L603.744 200.908C603.068 202.108 603.351 202.096 603.851 203.883L604.141 204.893C604.913 206.072 607.59 209.982 608.083 211.023C609.316 214.875 614.838 223.508 612.982 227.049C614.518 232.089 616.796 237.116 618.227 242.034C619.769 249.001 621.951 255.701 623.412 262.828C627.208 282.172 629.137 301.836 629.174 321.549C629.2 326.759 629.34 336.174 628.423 341.084C628.266 339.763 628.451 339.213 627.738 338.396C623.534 340.391 607.785 354.011 602.693 357.718C596.701 371.984 588.826 387.129 577.807 398.117C571.861 404.047 568.592 411.385 564.757 418.677C547.125 452.202 517.499 476.829 482.875 491.481C480.122 492.647 469.515 498.313 467.194 497.907L466.22 497.012C464.608 492.686 463.311 480.17 463.499 475.546C465.086 436.39 488.11 399.856 517.251 374.85C521.365 371.32 526.006 367.824 529.844 364.06L530.24 363.668C530.397 363.353 532.657 360.535 533.028 360.062L534.305 360.472C537.281 361.422 537.571 361.339 540.351 359.77C540.257 370.314 543.269 385.041 546.639 395.093L547.501 396.711C547.645 393.092 546.916 387.056 546.63 383.207C546.063 375.633 546.576 368.018 548.156 360.589C554.011 332.292 569.316 310.821 583.094 286.15C583.837 284.819 590.47 261.725 590.546 260.284C594.459 245.178 597.355 228.183 596.92 212.528C597.192 206.216 596.098 198.121 594.28 192.097Z"></path><path fill="#F7F994" d="M596.92 212.528C598.363 211.787 598.053 211.672 599.429 211.776C601.126 213.812 602.027 231.371 602.091 235.06C602.458 256.403 596.034 277.499 589.309 297.53C585.334 309.37 585.136 316.799 585.376 328.998C583.256 325.13 580.99 316.766 579.712 312.349C576.777 317.395 572.872 321.882 570.114 326.688C561.405 341.865 555.556 358.44 551.957 375.521C551.088 379.646 549.186 396.937 547.855 399.287L547.395 399.105C547.144 397.874 547.188 397.945 547.501 396.711C547.645 393.092 546.916 387.056 546.63 383.207C546.063 375.633 546.576 368.018 548.156 360.589C554.011 332.292 569.316 310.821 583.094 286.15C583.837 284.819 590.47 261.725 590.546 260.284C594.459 245.178 597.355 228.183 596.92 212.528Z"></path><path fill="#E0F050" d="M533.028 360.062L534.305 360.472C537.281 361.422 537.571 361.339 540.351 359.77C540.257 370.314 543.269 385.041 546.639 395.093C542.354 392.591 533.619 378.491 531.98 373.384C531.015 370.377 531.983 365.387 530.24 363.668C530.397 363.353 532.657 360.535 533.028 360.062Z"></path><path fill="#F7F994" d="M599.913 200.801C601.344 202.142 602.753 203.506 604.141 204.893C604.913 206.072 607.59 209.982 608.083 211.023C609.316 214.875 614.838 223.508 612.982 227.049C611.038 222.944 609.425 218.428 607.337 214.376C604.952 209.748 602.222 205.497 599.913 200.801Z"></path><defs><linearGradient id="gradient_8" gradientUnits="userSpaceOnUse" x1="174.47937" y1="371.54147" x2="289.65707" y2="274.01462"><stop offset="0" stop-color="#67CE29"></stop><stop offset="1" stop-color="#E1F33A"></stop></linearGradient></defs><path fill="url(#gradient_8)" d="M226.81 197.41C229.636 195.181 231.677 193.621 234.686 191.657C234.043 194.708 233.417 197.636 232.924 200.722C229.949 219.229 230.074 234.033 232.58 252.35C233.457 257.193 234.405 262.023 235.422 266.838C238.364 282.282 242.015 292.594 241.576 309.076C241.473 313.291 241.133 317.496 240.557 321.671C240.191 324.418 239.234 329.927 239.384 332.466C238.972 333.452 238.829 333.492 238.99 334.512C240.003 334.155 240.977 332.605 241.781 331.615L245.506 330.723C254.896 328.552 251.959 322.26 256.859 316.138C257.782 314.985 259.753 313.546 260.994 312.534C278.475 335.379 290.778 361.755 297.048 389.832C298.079 394.833 298.848 399.884 299.352 404.966C296.784 406.831 275.222 408.568 271.254 408.587C258.432 416.769 245.978 425.226 232.138 431.57C230.366 432.382 227.743 433.54 226.36 434.822C224.03 429.113 222.37 422.9 220.65 416.98C214.418 395.529 211.222 377.099 207.943 355.225C207.25 350.597 206.458 329.809 205.34 327.789C202.746 305.938 205.979 263.963 212.04 243.066C214.771 232.556 217.627 225.475 221.941 215.514L221.616 212.955L222.461 212.622C224.971 209.381 229.044 201.215 226.81 197.41Z"></path><path fill="#68CB2A" d="M297.048 389.832C298.079 394.833 298.848 399.884 299.352 404.966C296.784 406.831 275.222 408.568 271.254 408.587C274.31 404.885 275.489 404.547 279.042 399.539C284.133 397.493 289.26 393.382 295.253 392.24C296.326 392.036 296.717 390.741 297.048 389.832Z"></path><path fill="#B3E534" d="M226.81 197.41C229.636 195.181 231.677 193.621 234.686 191.657C234.043 194.708 233.417 197.636 232.924 200.722C229.949 219.229 230.074 234.033 232.58 252.35C231.014 251.465 231.158 251.327 230.928 249.723L231.144 249.781C229.238 237.491 229.917 226.357 230.024 214.033C230.041 211.986 231.372 208.354 231.5 205.081L229.696 203.667C227.535 205.067 220.529 220.941 218.776 224.499C216.602 228.911 214.789 239.381 212.04 243.066C214.771 232.556 217.627 225.475 221.941 215.514L221.616 212.955L222.461 212.622C224.971 209.381 229.044 201.215 226.81 197.41Z"></path><path fill="#E0F050" d="M226.81 197.41C229.636 195.181 231.677 193.621 234.686 191.657C234.043 194.708 233.417 197.636 232.924 200.722C232.139 200.428 231.692 200.045 231.226 200.441C227.236 203.83 225.354 211.098 221.941 215.514L221.616 212.955L222.461 212.622C224.971 209.381 229.044 201.215 226.81 197.41Z"></path><path fill="#31AD31" d="M299.352 404.966C302.713 432.825 300.189 457.6 301.238 485.032C303.06 532.664 319.9 588.252 358.762 618.773C363.469 622.469 371.016 627.484 376.344 629.929L376.411 631.873C376.037 632.494 375.668 633.213 374.806 633.261C368.475 633.616 346.795 622.431 342.614 619.22C340.04 617.753 339.027 617.053 336.694 615.219C336.776 615.026 336.902 614.19 336.945 613.947C332.398 610.694 326.725 605.174 322.609 601.05C290.604 568.98 266.548 528.687 247.547 487.782C242.31 476.508 238.018 464.899 233.261 453.475C230.713 447.356 228.845 440.935 226.36 434.822C227.743 433.54 230.366 432.382 232.138 431.57C245.978 425.226 258.432 416.769 271.254 408.587C275.222 408.568 296.784 406.831 299.352 404.966Z"></path><path fill="#68CB2A" d="M336.945 613.947C338.875 615.258 340.96 616.497 342.454 618.264L342.614 619.22C340.04 617.753 339.027 617.053 336.694 615.219C336.776 615.026 336.902 614.19 336.945 613.947Z"></path><path fill="#005EDC" d="M414.239 0L414.64 0C426.655 13.699 438.865 29.5288 450.112 43.9522C478.24 80.0735 504.833 117.365 529.819 155.728L527.762 155.675L526.954 153.97L526.93 154.564L526.225 151.862C525.126 151.976 523.556 152.471 522.392 151.474C521.964 151.107 519.861 147.058 519.851 147.052C517.875 145.763 515.538 144.601 513.679 143.21C510.091 140.526 509.385 138.046 504.933 136.421C504.618 135.453 504.439 134.984 504.271 133.973C504.467 135.24 504.08 137.176 503.194 138.107C501.861 137.929 501.802 137.803 500.659 137.156C500.244 139.218 502.334 138.373 500.001 141.402C500.012 142.811 502.719 146.856 503.599 148.436C507.063 154.656 510.472 160.906 513.826 167.186C515.121 169.657 524.598 188.527 524.368 190.28C523.975 189.904 522.954 187.942 522.62 187.341C522.524 189.521 522.612 191.974 522.011 194C517.334 201.373 520.255 198.819 512.688 203.159C512.209 201.729 511.61 199.493 510.732 198.376L510.318 198.486C509.14 196.19 507.862 189.933 506.668 187.019C502.978 178.013 498.468 163.272 494.041 154.974C489.471 144.331 484.359 133.929 478.723 123.81C466.558 101.69 453.234 80.227 438.807 59.5116C435.865 55.2474 431.429 48.001 428.618 44.3851C427.45 41.2902 422.723 36.5534 423.696 33.1878L424.886 33.4142L425 32.6657L414.262 18.9899C412.873 20.746 411.591 22.6172 410.296 24.4467C392.301 47.3331 375.71 72.8742 360.206 97.5983C358.858 93.107 364.366 89.6456 362.859 86.0564C361.305 85.6475 360.9 85.5567 359.788 84.3275C357.751 85.0055 352.8 87.4041 351.004 86.5868C350.913 86.2526 350.821 85.9183 350.73 85.5841C352.896 83.7968 355.076 76.7379 355.542 74.8658L355.714 74.1478C356.704 72.2391 365.692 60.5588 367.715 57.871C378.029 44.1486 388.582 30.6078 399.369 17.2548C403.731 11.9586 409.574 4.65213 414.239 0Z"></path><path fill="#1C9EF5" d="M428.618 44.3851C427.45 41.2902 422.723 36.5534 423.696 33.1878L424.886 33.4142C426.325 35.6113 430.677 42.2293 432.571 43.4124L433.051 43.2061C440.818 52.7007 449.707 65.9653 456.759 76.1451C473.093 99.554 488.372 123.681 502.553 148.455C509.197 160.112 517.42 174.905 522.62 187.341C522.524 189.521 522.612 191.974 522.011 194C517.334 201.373 520.255 198.819 512.688 203.159C512.209 201.729 511.61 199.493 510.732 198.376L510.318 198.486C509.14 196.19 507.862 189.933 506.668 187.019C502.978 178.013 498.468 163.272 494.041 154.974C489.471 144.331 484.359 133.929 478.723 123.81C466.558 101.69 453.234 80.227 438.807 59.5116C435.865 55.2474 431.429 48.001 428.618 44.3851Z"></path><path fill="#33B6F3" d="M425 32.6657C427.285 35.1497 431.344 40.3057 433.051 43.2061L432.571 43.4124C430.677 42.2293 426.325 35.6113 424.886 33.4142L425 32.6657Z"></path><defs><linearGradient id="gradient_9" gradientUnits="userSpaceOnUse" x1="532.2287" y1="460.52692" x2="472.19379" y2="408.07187"><stop offset="0" stop-color="#E0F93D"></stop><stop offset="1" stop-color="#FAFAA5"></stop></linearGradient></defs><path fill="url(#gradient_9)" d="M543.963 338.562C542.051 345.804 540.708 352.245 540.351 359.77C537.571 361.339 537.281 361.422 534.305 360.472L533.028 360.062C532.657 360.535 530.397 363.353 530.24 363.668L529.844 364.06C526.006 367.824 521.365 371.32 517.251 374.85C488.11 399.856 465.086 436.39 463.499 475.546C463.311 480.17 464.608 492.686 466.22 497.012C467.01 503.327 471.996 531.165 468.748 534.658L468.132 534.415C468.046 530.871 468.217 526.852 466.877 523.624C455.259 485.26 447.624 472.011 463.199 431.293C480.735 385.45 509.044 370.069 543.963 338.562Z"></path><path fill="#B3E534" d="M391.273 634.928C417.671 618.327 436.182 582.637 439.662 552.083C440.993 540.391 439.909 527.877 439.929 516.121C439.947 506.004 440.83 496.243 441.699 486.173C446.335 495.373 458.77 517.943 466.877 523.624C468.217 526.852 468.046 530.871 468.132 534.415C459.104 525.9 456.325 525.422 450 514.338C449.947 521.216 449.404 528.104 449.206 535.029C448.885 546.242 448.654 557.067 446.625 568.17C442.803 589.081 430.532 609.744 415.692 624.814C412.604 627.95 408.815 631.07 405.512 634.014C402.92 635.944 400.516 637.781 397.751 639.479C396.605 639.992 390.875 642.868 390.065 643.549C384.409 645.878 380.478 647.199 374.427 648.79C370.439 649.547 366.983 650.152 362.898 650.379L361.408 649.461C373.771 645.92 380.762 642.582 391.273 634.928Z"></path><path fill="#E0F050" d="M247.922 293.293C252.018 299.671 256.691 306.253 260.994 312.534C259.753 313.546 257.782 314.985 256.859 316.138C251.959 322.26 254.896 328.552 245.506 330.723L241.781 331.615C240.977 332.605 240.003 334.155 238.99 334.512C238.829 333.492 238.972 333.452 239.384 332.466C248.453 318.634 249.668 309.272 247.922 293.293Z"></path><path fill="#0174C3" d="M522.62 187.341C522.954 187.942 523.975 189.904 524.368 190.28C525.311 192.531 526.201 194.691 527.27 196.887C524.07 197.101 523.941 196.46 522.011 194C522.612 191.974 522.524 189.521 522.62 187.341Z"></path><path fill="#005EDC" d="M532.477 159.82C533.784 161.693 535.198 163.558 536.159 165.621L535.758 165.925C535.112 165.481 534.498 164.959 533.755 164.701C532.207 162.481 532.113 162.462 532.477 159.82Z"></path><defs><linearGradient id="gradient_10" gradientUnits="userSpaceOnUse" x1="414.69852" y1="514.40424" x2="415.28326" y2="665.26544"><stop offset="0" stop-color="#0B7A4A"></stop><stop offset="1" stop-color="#024852"></stop></linearGradient></defs><path fill="url(#gradient_10)" d="M153.856 512.616C170.81 524.127 188.022 532.148 207.62 537.964C210.991 538.965 217.284 541.164 220.682 541.411C226.32 542.521 231.055 545.196 237.172 544.735C243.348 544.27 249.375 543.364 255.415 541.979C259.479 546.549 271.753 562.781 275.96 564.337C279.281 566.682 288.032 578.304 292.011 581.612C293.298 581.716 293.053 581.548 294.429 580.674C295.647 577.074 281.154 564.693 280.649 559.322C280.632 559.144 280.631 558.964 280.621 558.785C297.907 583.602 311.082 597.918 336.694 615.219C339.027 617.053 340.04 617.753 342.614 619.22C346.795 622.431 368.475 633.616 374.806 633.261C375.668 633.213 376.037 632.494 376.411 631.873L376.344 629.929C379.059 630.164 386.836 633.854 391.273 634.928C380.762 642.582 373.771 645.92 361.408 649.461L362.898 650.379C366.983 650.152 370.439 649.547 374.427 648.79C380.478 647.199 384.409 645.878 390.065 643.549C389.564 644.474 389.267 644.645 388.419 645.268C388.029 646.197 387.667 646.923 387.491 647.921C388.473 649.703 392.092 649.431 393.951 649.441C400.934 649.414 415.422 646.652 421.64 643.946C428.832 641.633 436.022 639.182 443.172 636.664C473.304 626.051 501.137 606.931 524.027 584.838C536.549 572.752 547.322 559.485 558.082 545.879C557.941 547.595 556.691 548.961 555.661 550.445C562.778 549.661 592.996 549.452 596.578 547.246C606.249 547.536 646.35 529.333 655.926 523.978C660.764 521.273 669.811 515.93 675.004 512.948C657.092 557.881 618.375 599.949 573.746 619.116C560.824 624.725 547.024 628.037 532.964 628.905C531.023 629.043 525.791 629.355 524.166 629.073L523.546 629.042C518.971 628.772 517.678 627.157 514.275 626.878C515.251 627.882 519.892 629.358 521.303 629.501C536.099 633.173 552.253 632.115 567.29 631.02C549.2 640.668 532.882 647.192 513.178 652.997C446.228 672.653 374.743 670.329 309.21 646.366C258.905 627.96 207.323 595.182 175.32 551.323C165.96 538.496 160.464 526.844 153.856 512.616Z"></path><path fill="#188733" d="M390.065 643.549C389.564 644.474 389.267 644.645 388.419 645.268C388.029 646.197 387.667 646.923 387.491 647.921C388.473 649.703 392.092 649.431 393.951 649.441C389.059 650.184 378.725 651.237 374.427 648.79C380.478 647.199 384.409 645.878 390.065 643.549Z"></path><path fill="#80B882" d="M362.898 650.379C361.472 650.577 358.919 651.075 357.724 650.221C358.86 649.546 360.061 649.587 361.408 649.461L362.898 650.379Z"></path><path fill="#D5EEDC" fill-opacity="0.078431375" d="M179.562 409.279C181.732 410.737 185.307 412.93 186.98 414.746C184.459 413.853 180.786 411.311 178.414 409.804L179.562 409.279Z"></path><path fill="#D5EEDC" fill-opacity="0.14901961" d="M648.368 411.86L649.468 412.317C646.926 414.009 644.889 415.369 642.21 416.811C643.876 414.917 646.285 413.352 648.368 411.86Z"></path><path fill="#188733" fill-opacity="0.70980394" d="M521.303 629.501C519.892 629.358 515.251 627.882 514.275 626.878C517.678 627.157 518.971 628.772 523.546 629.042L524.166 629.073L521.303 629.501Z"></path></svg>