<?xml version="1.0" encoding="utf-8" ?><svg xmlns="http://www.w3.org/2000/svg" xmlns:xlink="http://www.w3.org/1999/xlink" width="1091" height="727" viewBox="0 0 1091 727"><path fill="#12174F" transform="scale(0.874199 0.873798)" d="M625.427 20.9818C629.44 20.3882 640.86 20.4962 645 20.5816C683.505 21.6425 721.185 31.9877 754.836 50.7376C800.367 75.2432 836.535 114.101 857.722 161.276C864.097 175.83 867.493 187.691 871.87 202.789C875.155 203.147 878.698 203.853 881.963 204.447C913.705 210.225 945.37 216.688 976.973 223.19C1007.91 229.554 1038.89 234.76 1069.08 244.211C1044.83 245.328 1013.89 244.403 989.046 244.399L835.908 244.439C833.077 226.039 830.133 210.481 823.947 192.76C794.522 108.469 721.012 61.4353 632.835 61.4849C589.6 61.4364 540.592 81.2919 508.028 109.613C467.591 144.781 443.311 190.677 439.717 244.462L279.677 244.436C248.857 244.464 218.095 243.907 187.303 244.599C200.957 241.112 213.614 239.091 227.39 236.392L290.697 223.883L351.102 211.965C369.299 208.391 386.564 204.814 405.022 202.837C415.383 164.045 428.909 134.704 455.129 104.177C488.889 64.6426 534.628 37.212 585.397 26.0539C599.277 23.1053 611.387 22.0598 625.427 20.9818Z"/><path fill="#12174F" transform="scale(0.874199 0.873798)" d="M388.898 272.152L439.214 272.072C439.815 305.829 462.775 352.195 484.064 377.684C517.851 418.676 566.833 444.184 619.783 448.362C672.356 452.931 725.136 436.966 765.975 403.142C803.226 372.289 831.045 320.794 835.08 272.308L1068.5 272.392C1011.28 285.653 952.836 296.542 895.327 308.629C887.901 310.19 880.235 311.747 872.756 313.002C871.317 313.463 870.812 313.292 870.309 314.66C867.909 321.187 865.842 328.338 863.639 334.906C859.774 346.211 854.994 357.181 849.346 367.708C819.567 422.091 769.57 462.551 710.182 480.326C649.426 498.484 577.742 492.091 521.883 461.727C476.649 436.897 440.69 398.059 419.404 351.045C413.675 338.232 410.366 327.506 406.434 314.195C362.938 308.01 312.883 296.279 268.959 287.722L223.449 278.958C214.662 277.292 201.774 275.46 193.882 272.392C215.923 271.756 239.657 272.319 261.84 272.314L388.898 272.152Z"/><path fill="#12174F" transform="scale(0.874199 0.873798)" d="M625.474 92.3779C669.88 89.1296 710.85 108.035 743.902 136.467C735.535 145.559 725.921 154.553 716.988 163.197C691.495 142.607 684.019 137.793 652.69 129.451C653.287 153.94 653.259 178.44 652.609 202.928C679.149 215.454 682.275 229.206 681.802 256.709C690.706 262.555 704.693 270.11 714.147 275.57C735.902 288.202 757.788 300.607 779.801 312.784C757.961 359.429 724.565 385.21 677.415 402.84C672.185 391.633 667.196 377.653 662.72 365.9C684.947 357.002 696.89 350.084 714.885 334.849C718.906 331.038 720.658 329.215 724.071 324.858C717.64 320.698 707.101 315.422 700.043 311.483C688.576 305.015 677.256 298.29 666.091 291.312C641.673 306.459 624.951 307.115 601.213 290.43C570.43 309.148 537.806 327.477 506.643 346.007C482.022 304.449 472.007 261.352 479.161 213.055C492.132 216.19 503.733 219.022 516.992 220.896C512.281 247.805 515.481 267.835 522.032 293.955C539.755 281.955 564.76 268.099 583.905 258.344C576.077 230.383 587.842 213.683 613.116 202.355C612.956 179.829 612.918 157.302 613.003 134.776C613.018 121.496 612.629 105.825 613.457 92.7695L625.474 92.3779Z"/><path fill="#12174F" transform="scale(0.874199 0.873798)" d="M32.4872 549.149L1221.82 549.272L1221.82 567.462L32.5721 567.462C32.4283 561.359 32.4 555.254 32.4872 549.149Z"/><path fill="#12174F" transform="scale(0.874199 0.873798)" d="M1006.67 595.754C1039.7 591.165 1070.18 614.241 1074.74 647.278C1079.3 680.316 1056.2 710.789 1023.17 715.32C990.178 719.845 959.759 696.777 955.206 663.78C950.653 630.784 973.688 600.337 1006.67 595.754ZM1022.42 706.927C1031.63 704.541 1040.32 699.145 1044.88 690.544C1061.54 659.105 1054.54 600.743 1008.59 602.936C998.543 605.785 990.736 609.932 985.793 619.632C970.209 650.221 975.575 712.736 1022.42 706.927Z"/><path fill="#12174F" transform="scale(0.874199 0.873798)" d="M43.3648 598.202C64.4936 598.113 95.8974 595.882 115.672 602.825C130.081 607.885 135.6 626.717 129.123 639.79C124.785 648.548 115.754 651.2 107.109 654.262C107.483 654.281 107.857 654.304 108.231 654.333C135.88 656.483 150.595 684.832 128.732 702.929C113.46 714.939 92.1378 712.358 74.0331 712.581C61.0606 712.742 48.5481 712.885 35.5623 712.102C40.6624 709.237 46.4964 706.162 51.0578 702.603C51.2345 673.497 54.0227 642.232 51.3515 613.17C50.4233 603.071 41.3027 603.849 34.122 599.024L33.5286 598.618L43.3648 598.202ZM108.111 698.122C113.52 691.828 115.339 686.408 114.605 678.1C112.763 657.251 88.3846 657.423 73.094 657.672C73.0496 664.388 71.4131 697.466 75.5092 701.874C81.269 708.072 100.636 703.578 108.111 698.122ZM73.208 650.82C84.6389 650.573 92.4918 651.249 102.259 644.794C107.84 638.769 109.348 634.484 109.134 626.286C108.602 605.942 88.467 606.252 73.5973 606.485C72.617 620.084 73.0787 637.102 73.208 650.82Z"/><path fill="#12174F" transform="scale(0.874199 0.873798)" d="M262.17 598.202C271.394 598.284 280.618 598.301 289.842 598.255C309.892 598.029 351.763 594.086 358.208 620.02C363.53 641.435 349.056 652.516 329.819 656.994C337.018 669.005 359.196 691.335 369.651 702.009C372.449 704.866 380.651 709.597 384.35 711.721C375.006 713.057 361.66 712.608 351.953 712.499C348.175 708.565 344.059 703.339 340.522 699.059C329.3 684.976 319.319 672.602 307.104 659.441C304.516 659.134 301.338 659.097 298.688 659C298.736 672.859 298.946 686.718 299.317 700.573C304.333 706.714 309.601 708.428 316.771 711.932C307.72 711.79 267.899 714.022 262.542 711.709C262.783 705.515 276.539 712.716 276.467 693.998C276.36 666.235 278.042 637.538 275.636 609.86C275.014 602.71 262.055 603.342 261.137 598.983L262.17 598.202ZM299.238 652.118C309.343 652.016 317.751 652.207 326.708 646.916C336.21 638.563 340.375 624.386 331.62 613.726C326.967 608.06 318.293 606.618 311.338 606.313C308.723 606.197 306.106 606.136 303.489 606.132C300.876 606.478 301.467 605.996 300.029 607.549C298.503 612.65 299.199 644.762 299.238 652.118Z"/><path fill="#12174F" transform="scale(0.874199 0.873798)" d="M814.124 600.724C817.516 598.967 820.984 597.03 824.358 595.21C825.28 608.192 825.851 620.529 823.848 633.403C818.877 626.115 817.147 618.053 809.238 611.478C800.853 604.506 783.445 601.96 772.835 602.977C760.985 604.002 750.049 609.76 742.497 618.951C724.412 641.049 727.807 679.329 750.26 697.299C762.126 706.796 775.203 708.061 789.715 706.663C804.059 705.282 808.42 698.978 808.346 684.831C808.368 676.861 807.606 670.151 806.127 662.289C804.47 653.317 796.169 653.095 788.666 649.83C803.199 647.902 828.601 648.358 843.756 648.874C837.236 651.747 832.166 654.865 828.081 660.733C827.522 674.024 827.98 689.21 828.182 702.568C818.293 707.454 805.17 713.213 794.144 714.596C772.468 717.316 748.237 714.678 730.404 701.274C718.002 691.996 709.898 678.079 707.95 662.711C705.928 647.484 710.107 632.082 719.547 619.966C731.282 605.126 746.936 598.576 765.196 596.336C778.206 594.543 800.801 598.908 814.124 600.724Z"/><path fill="#12174F" transform="scale(0.874199 0.873798)" d="M652.029 599.035C668.859 597.467 688.752 598.028 705.628 598.73C700.951 600.569 693.757 602.617 689.711 605.271C682.783 609.815 683.712 626.796 683.509 634.29C683.072 650.389 683.979 666.661 683.79 682.745C683.683 691.942 684.57 704.121 682.792 712.923C681.388 714.399 682.021 713.958 679.368 714.08C673.78 711.09 656.369 690.126 650.852 684.315C632.342 664.819 613.648 641.455 594.758 622.552C594.573 637.5 591.713 690.203 596.309 701.124C598.859 707.185 606.775 709.52 612.333 711.79C603 713.225 575.606 712.544 564.818 712.55C572.839 709.8 578.267 707.893 584.322 701.681C584.969 689.381 586.871 616.337 583.504 610.775C579.457 604.091 569.279 605.388 565.808 599.837C567.125 598.343 567.361 598.705 569.639 598.252C579.413 598.122 589.187 598.117 598.961 598.238C605.89 604.663 618.884 620.182 625.753 627.957L673.848 682.191C672.952 661.706 676.35 630.514 671.735 610.004C670.641 605.14 657.188 600.863 652.029 599.035Z"/><path fill="#12174F" transform="scale(0.874199 0.873798)" d="M1173.58 598.869C1186.53 597.446 1207.66 598.22 1221.22 598.425C1217.15 601.304 1210.13 605.113 1205.63 607.717C1200.48 629.805 1204.75 661.961 1203.49 685.014C1202.98 694.537 1204.1 703.851 1202.71 713.624L1201.74 713.964C1199.39 713.125 1197.84 711.208 1196.02 709.396C1173.42 686.482 1152.66 661.119 1130.84 637.434C1126.2 632.4 1121.99 627.044 1116.97 622.359C1116.94 632.572 1115.66 695.121 1117.55 700.05C1120.14 706.781 1129.43 707.511 1130.92 711.555C1128.51 713.613 1093.45 712.404 1088.74 712.314C1096.48 708.54 1100.14 707.284 1106.53 701.505C1107.13 694.338 1107.34 687.101 1107.29 679.912C1107.11 657.403 1107.69 634.817 1106.58 612.335C1096.94 603.317 1093.48 605.058 1084.72 598.661L1095.48 598.277C1103.69 597.995 1112.4 598.213 1120.65 598.286C1125.33 603.112 1130.15 609.294 1134.86 614.344C1155.21 636.18 1174.02 659.678 1194.36 681.459L1194.38 640.453C1194.38 631.891 1194.79 623.052 1193.47 614.597C1191.7 603.323 1183.23 605.296 1173.58 598.869Z"/><path fill="#12174F" transform="scale(0.874199 0.873798)" d="M210.433 598.25C220.661 597.884 234.164 597.986 244.41 598.3C244.515 607.37 244.899 615.579 242.678 624.424C239.855 621.018 235.25 612.348 232.919 610.331C226.188 604.509 196.369 606.363 186.461 606.385L186.455 649.517C198.111 649.783 209.974 650.499 221.452 648.038C228.081 646.617 227.191 636.576 232.169 635.319L233.032 636.011C235.169 644.84 233.885 664.477 232.877 673.691C228.262 667.493 226.799 658.291 217.586 657.601C207.31 656.831 196.698 656.959 186.42 657.655C186.421 668.913 182.812 691.569 189.828 700.681C192.774 704.507 199.318 704.613 203.865 704.708C205.466 704.739 207.067 704.712 208.666 704.627C215.917 704.238 225.351 703.841 232.397 702.53C240.455 701.03 246.046 688.641 251.274 682.952L251.792 682.396C251.171 692.413 249.461 702.696 247.463 712.518C215.277 713.182 179.858 713.327 147.889 711.777C151.211 710.147 161.579 705.203 162.724 703.008C166.391 695.978 165.222 672.47 165.223 665.046C165.281 647.073 165.217 629.099 165.03 611.126C161.111 606.158 154.489 602.388 149.121 598.762C167.837 597.757 191.362 598.266 210.433 598.25Z"/><path fill="#12174F" transform="scale(0.874199 0.873798)" d="M844.085 598.168L948.462 598.278C948.809 609.322 949.113 617.683 947.054 628.52C943.571 622.459 943.279 617.695 937.873 611.889C931.188 604.71 915.352 606.328 905.444 606.42C905.096 635.485 905.163 664.554 905.646 693.618C906.898 707.26 910.511 706.698 922.426 711.598C910.99 713.364 878.007 712.822 866.072 712.072C873.693 707.28 882.484 707.308 883.125 696.94C883.769 686.525 883.661 676.257 883.685 665.835L883.558 606.517C871.63 606.053 861.501 605.041 851.683 612.307C849.843 616.519 849.722 621.474 845.7 624.394L844.728 623.94C843.029 619.854 843.961 603.462 844.085 598.168Z"/><path fill="#12174F" transform="scale(0.874199 0.873798)" d="M385.17 598.201C396.251 598 407.335 597.96 418.417 598.081C423.868 598.127 434.229 598.034 439.168 599.016L439.64 599.765C436.137 603.984 425.172 604.551 424.666 612.449C424.154 620.425 424.208 628.468 424.177 636.464C424.077 654.332 424.162 672.202 424.431 690.068C424.507 693.366 424.396 699.214 427.134 701.284C434.514 706.864 451.724 704.249 460.295 703.734C476.058 702.785 481.285 693.678 490.408 682.379C490.525 686.401 490.144 690.386 489.844 694.398C488.937 700.424 488.076 706.458 487.263 712.498L408.202 712.575C399.745 712.51 391.196 711.76 383.056 711.789C388.224 710.11 396.259 708.5 400.017 704.355C406.427 697.282 403.521 622.724 402.812 608.179C398.16 605.506 388.102 601.954 385.17 598.201Z"/><path fill="#12174F" transform="scale(0.874199 0.873798)" d="M504.051 598.239C520.753 597.527 542.935 598.098 559.527 598.802C550.864 602.142 545.743 602.351 539.299 609.34C538.482 613.254 538.271 617.285 538.035 621.269C537.433 631.464 537.062 698.634 539.509 702.539C542.816 707.818 550.993 706.979 554.881 711.366L554.385 712.128L552.245 712.469C540.207 712.773 511.154 713.431 500.305 711.862C504.899 709.526 513.4 706.939 515.725 701.9C518.818 695.201 518.328 615.971 515.512 608.934C513.57 604.083 500.161 600.678 495.394 598.552L504.051 598.239Z"/><path fill="#12174F" transform="scale(0.874199 0.873798)" d="M654.729 759.683C664.497 757.788 673.972 764.104 675.984 773.851C677.995 783.598 671.795 793.151 662.075 795.28C655.683 796.68 649.032 794.534 644.662 789.661C640.293 784.789 638.88 777.943 640.963 771.739C643.047 765.534 648.305 760.929 654.729 759.683ZM661.467 788.474C667.401 786.632 670.777 780.386 669.068 774.411C667.36 768.436 661.193 764.92 655.183 766.495C651.173 767.545 648.046 770.684 647.011 774.699C645.975 778.713 647.193 782.973 650.194 785.833C653.195 788.693 657.509 789.703 661.467 788.474Z"/><path fill="#12174F" transform="scale(0.874199 0.873798)" d="M722.274 760.06C730.035 760.05 742.855 759.058 748.799 764.46C756.906 771.827 754.956 782.743 748.741 790.247C740.656 796.366 731.965 795.406 722.197 795.329C722.004 783.738 722.217 771.686 722.274 760.06ZM729.058 789.321C734.628 789.297 739.168 789.236 743.904 785.923C753.182 771.195 742.183 766.027 728.862 766.118L729.058 789.321Z"/><path fill="#12174F" transform="scale(0.874199 0.873798)" d="M547.886 760.059C557.056 759.864 587.628 759.436 570.234 776.658C575.52 781.399 576.749 782.759 574.977 789.967C568.72 797.056 556.405 795.393 547.886 794.93L547.886 760.059ZM554.626 789.437C558.904 789.417 563.576 789.654 567.613 788.263C570.491 778.719 561.331 779.817 554.716 780.054L554.626 789.437ZM566.742 773.918C568.782 764.423 561.819 765.359 554.64 765.699L554.7 774.705C559.367 774.639 562.064 774.578 566.742 773.918Z"/><path fill="#12174F" transform="scale(0.874199 0.873798)" d="M813.587 760.094C819.878 759.961 826.357 759.136 832.586 760.578C838.148 761.866 840.631 766.263 839.777 771.824C839.651 772.823 837.188 775.753 837.272 776.411C838.344 784.79 843.149 780.305 839.563 790.618C833.225 796.945 822.038 795.532 813.678 795.367L813.587 760.094ZM820.251 789.322C824.786 789.405 829.03 789.691 833.417 788.339C834.276 778.057 828.517 780.015 820.17 780.185L820.251 789.322ZM820.164 774.725C824.796 774.796 827.546 774.922 832.149 773.802C834.426 764.099 827.698 765.358 820.251 765.56L820.164 774.725Z"/><path fill="#12174F" transform="scale(0.874199 0.873798)" d="M299.237 760.09C306.485 760.053 317.244 758.945 323.348 763.296C328.564 767.015 325.198 773.313 321.841 777.124C326.246 782.156 327.839 783.919 325.255 790.542C318.583 796.85 308.171 795.477 299.324 795.313C298.933 784.233 299.244 771.313 299.237 760.09ZM305.81 789.337C310.705 789.802 313.969 789.85 318.737 788.561C321.543 778.462 313.003 779.815 305.778 780.246L305.81 789.337ZM305.743 774.747C310.573 774.698 313.2 774.765 318.005 773.769C318.597 771.466 319.05 770.478 318.21 768.2C315.664 764.568 309.874 765.458 305.882 765.642L305.743 774.747Z"/><path fill="#12174F" transform="scale(0.874199 0.873798)" d="M963.458 760.114C972.694 759.861 980.102 758.607 987.987 763.412C993.314 771.648 991.351 776.586 984.164 782.064C986.376 786.242 990.754 790.85 990.373 794.532C988.613 795.83 987.814 795.36 985.21 795.379C982.234 794.062 978.747 786.466 977.013 783.292L970.369 783.272C970.537 787.135 971.357 792.59 968.27 795.229C966.323 795.385 965.828 795.593 964.17 794.753C962.647 792.015 963.407 765.222 963.458 760.114ZM970.165 777.249C973.286 777.253 980.06 777.739 982.383 776.063C987.746 766.309 977.501 765.754 970.456 766.171C970.016 770.511 970.049 772.963 970.165 777.249Z"/><path fill="#12174F" transform="scale(0.874199 0.873798)" d="M682.997 759.972C683.566 759.963 686.793 759.945 687.088 760.053C693.12 762.267 703.832 778.932 707.381 783.852C707.393 779.237 706.695 763.208 708.617 760.23C710.792 760.194 711.089 760.085 713.038 760.891C714.941 766.117 714.171 788.283 714.118 795.194C711.274 795.419 708.882 795.679 706.772 793.454C700.401 786.733 695.887 778.701 689.755 771.652C689.689 778.03 690.292 788.323 689.563 794.306C687.71 795.203 685.212 794.901 683.047 794.868L682.997 759.972Z"/><path fill="#12174F" transform="scale(0.874199 0.873798)" d="M933.72 760.151C938.502 760.053 953.165 759.114 956.86 761.136C957.495 762.941 957.477 763.003 956.955 764.901C953.801 767.005 944.921 766.283 940.839 766.209L940.814 774.672C945.267 774.567 952.879 773.425 955.847 776.712C955.88 778.959 956.172 778.283 955.128 780.013C951.644 780.805 944.925 780.413 940.53 780.729L940.811 789.138C945.296 789.179 954.65 787.734 957.546 791.246C957.896 793.404 958.044 792.627 957.326 794.575C953.368 796.216 938.641 795.41 933.606 795.307L933.72 760.151Z"/><path fill="#12174F" transform="scale(0.874199 0.873798)" d="M581.514 760.143C586.679 760.09 600.694 759.267 604.807 761.192C604.982 763.634 605.22 762.711 604.002 764.71C600.221 767.195 592.833 766.245 588.119 766.082L588.015 774.737C592.405 774.607 599.622 773.824 603.208 776.063C604.073 777.804 603.949 777.014 603.479 779.065C600.517 781.548 593.962 779.984 588.855 780.476L588.097 780.553L588.056 789.336C593.806 789.049 605.019 786.552 605.485 794.247C603.271 796.014 585.162 795.148 581.554 795.112C581.356 783.631 581.522 771.663 581.514 760.143Z"/><path fill="#12174F" transform="scale(0.874199 0.873798)" d="M847.155 760.136C851.268 760.088 867.959 759.199 870.379 761.421C870.687 763.78 870.913 762.997 869.956 764.905C866.465 767.293 858.296 766.257 853.787 766.078L853.818 774.685C857.796 774.618 866.105 773.931 868.685 777.266L868.29 778.458C863.869 781.254 859.042 780.724 853.814 780.802L853.721 789.352C858.69 789.221 866.61 788.177 870.238 791.119C871.191 793.147 871.149 792.328 870.747 794.331C867.182 796.263 851.886 795.467 847.231 795.41L847.155 760.136Z"/><path fill="#12174F" transform="scale(0.874199 0.873798)" d="M402.709 760.092C407.303 760.11 423.588 758.87 426.453 761.683C426.504 763.339 426.425 763.275 425.539 764.746C422.07 767.041 413.845 766.18 409.475 766.058L409.464 774.909L409.875 774.904C414.051 774.855 421.078 774.272 424.221 777.339L423.978 778.37C419.88 780.91 414.489 780.263 409.663 780.188C409.389 781.7 409.489 787.472 409.487 789.335C414.955 789.11 421.733 788.588 426.637 791.198L426.902 792.504C422.517 796.484 408.872 795.303 402.917 794.982C402.259 784.943 402.676 770.469 402.709 760.092Z"/><path fill="#12174F" transform="scale(0.874199 0.873798)" d="M333.243 760.089C337.863 760.106 352.984 759.37 356.157 761.105C356.685 762.708 356.606 762.81 356.244 764.516C353.194 766.736 343.9 765.829 339.792 765.72L339.695 774.705C342.994 774.747 354.043 774.129 354.959 778.022C351.695 780.832 345.512 780.51 341.16 780.697L340.356 780.852C339.676 782.637 339.954 787.159 339.984 789.317C344.56 789.192 354.713 787.653 357.05 791.968C356.684 794.042 357.079 793.479 355.79 794.822C350.634 796.053 339.302 795.315 333.457 795.109L333.243 760.089Z"/><path fill="#12174F" transform="scale(0.874199 0.873798)" d="M466.288 760.172C471.401 760.062 485.798 758.969 489.126 761.737C489.148 763.885 489.412 763.072 488.131 764.797C484.307 766.986 477.03 766.171 472.468 766.023L472.642 774.638C476.867 774.416 484.375 773.369 487.47 776.602C487.814 778.718 487.959 777.871 487.065 779.786C484.406 780.55 476.226 780.275 472.536 780.445C472.708 782.954 472.598 786.711 472.6 789.322C477 789.184 486.373 787.933 489.215 791.525C489.555 793.459 489.719 792.779 488.896 794.313C483.431 795.884 472.223 795.282 466.064 795.166C466.03 783.501 466.104 771.835 466.288 760.172Z"/><path fill="#12174F" transform="scale(0.874199 0.873798)" d="M456.441 759.411C458.534 759.361 459.665 759.305 461.045 760.51C461.31 764.688 451.033 789.182 448.795 795.383C446.598 795.456 443.871 795.363 441.627 795.35L432.426 771.5C430.786 767.529 429.603 764.232 428.231 760.188C430.494 760.102 432.946 760.115 435.226 760.086C438.552 769.057 441.945 778.003 445.404 786.924C448.052 779.189 452.133 765.816 456.441 759.411Z"/><path fill="#12174F" transform="scale(0.874199 0.873798)" d="M607.177 760.075L614.481 760.104L623.367 776.221C626.249 770.558 628.951 765.683 632.143 760.183L639.167 760.388L632.202 772.641C626.489 782.118 626.414 784.367 626.683 794.882C624.625 794.876 621.939 795.084 619.828 795.192C619.855 778.522 615.59 774.837 607.177 760.075Z"/><path fill="#12174F" transform="scale(0.874199 0.873798)" d="M873.411 760.215C879.155 760.106 897.378 758.221 900.551 762.72C900.675 764.736 900.929 764.099 899.917 765.499C897.223 766.607 893.49 766.316 890.489 766.296C890.572 772.705 890.624 779.114 890.642 785.524C890.829 788.991 891.777 792.129 889.242 794.563C887.129 795.081 886.856 795.054 884.716 794.636C882.644 792.31 883.53 771.153 883.572 766.441C880.493 766.436 876.659 766.887 874.294 765.174C873.083 763.322 873.337 762.453 873.411 760.215Z"/><path fill="#12174F" transform="scale(0.874199 0.873798)" d="M901.958 760.27C907.315 760.151 924.787 759.14 928.839 760.993C929.673 763.203 929.66 763.874 928.018 765.605C925.542 766.666 921.8 766.3 918.996 766.233L919.005 785.829C919.067 788.674 919.223 790.787 918.662 793.59C917.284 795.192 917.891 794.674 915.819 795.458C910.04 793.936 912.181 771.614 912.26 766.262C909.343 766.313 905.764 766.776 903.442 765.234C902.041 763.518 902.138 762.437 901.958 760.27Z"/><path fill="#12174F" transform="scale(0.874199 0.873798)" d="M363.142 760.047C365.452 760.037 366.199 759.987 368.488 760.538C370.76 763.2 369.858 783.939 369.829 789.067C373.859 789.203 377.829 788.086 381.461 789.373C383.066 790.904 382.594 790.888 382.833 793.551L382.274 794.502C379.504 795.173 366.853 794.901 363.256 794.89L363.142 760.047Z"/><path fill="#12174F" transform="scale(0.874199 0.873798)" d="M387.842 760.032C390.777 760.007 391.938 759.665 393.821 761.487C395.02 766.989 394.346 788.496 394.269 794.957C392.133 794.952 390.796 795.131 388.84 794.277C386.818 791.12 387.773 765.51 387.842 760.032Z"/><path fill="#12174F" transform="scale(0.874199 0.873798)" d="M774.14 765.211C779.913 766.976 789.3 774.377 793.909 778.433C789.296 782.248 784.191 785.48 779.198 788.787C777.029 790.293 776.594 790.991 774.212 789.746L774.282 788.456C776.378 784.526 782.496 780.897 786.276 778.448C780.387 774.402 775.548 772.251 774.14 765.211Z"/><path fill="#12174F" transform="scale(0.874199 0.873798)" d="M509.922 765.536C514.079 766.635 526.603 774.223 526.945 778.929C525.796 783.061 518.113 786.849 514.048 789.47C512.241 790.444 511.163 791.07 509.473 789.639C509.884 785.67 518.632 780.505 522.029 778.446C516.295 774.675 511.318 772.828 509.922 765.536Z"/></svg>