<?xml version="1.0" encoding="utf-8" ?><svg xmlns="http://www.w3.org/2000/svg" xmlns:xlink="http://www.w3.org/1999/xlink" width="772" height="778" viewBox="0 0 772 778"><defs><linearGradient id="gradient_0" gradientUnits="userSpaceOnUse" x1="409.17255" y1="319.72549" x2="387.91809" y2="517.05768"><stop offset="0" stop-color="#04A53F"/><stop offset="1" stop-color="#00595A"/></linearGradient></defs><path fill="url(#gradient_0)" d="M396.737 20.9276C406.043 32.2385 414.818 44.944 423.272 56.9553C434.47 72.7904 445.503 88.7413 456.37 104.805L470.895 126.29C475.986 133.704 483.782 145.15 487.954 153.127C502.387 174.934 519.702 203.892 528.962 228.195C535.172 208.253 533.594 193.766 527.841 174.226C530.485 176.601 533.224 178.77 535.829 181.214C541.028 185.224 546.956 192.147 551.315 197.049C570.355 218.465 586.725 245.292 590.347 274.194C591.858 286.253 591.177 308.484 585.702 319.161C584.103 323.383 583.129 325.639 580.625 329.377C579.515 330.627 578.532 331.641 577.631 333.057C579.332 332.156 579.878 331.626 581.342 330.395C591.389 321.794 596.782 315.296 605.904 306.413C606.092 312.324 606.955 334 605.652 338.719C605.318 364.954 587.717 400.832 568.727 418.784C557.316 429.572 552.765 430.822 541.055 438.108C552.454 435.969 576.497 422.991 586.005 415.937C583.394 423.81 578.504 431.054 573.669 437.765C553.61 465.609 523.725 485.538 490.986 495.284C489.414 495.752 487.771 496.19 486.224 496.726C492.526 496.483 502.629 495.792 508.566 496.061C501.238 499.564 494.088 503.088 486.292 505.608C431.995 523.157 368.126 522.049 314.374 503.05C300.29 498.071 293.98 493.814 281.478 486.763C256.27 472.546 228.07 449.394 215.241 422.672C214.561 421.286 213.962 419.863 213.444 418.409C229.064 425.648 233.575 430.381 251.849 435.745C248.28 433.154 242.647 430.148 239.785 427.79C224.312 415.042 211.138 398.003 203.339 379.612C202.342 378.469 199.735 371.045 199.09 369.411C190.625 347.956 189.522 330.271 189.994 307.608C194.293 311.686 198.038 315.716 202.182 319.927C204.787 321.903 211.078 326.788 214.085 327.654C213.525 326.246 212.986 324.83 212.47 323.405C210.198 319.108 208.937 315.647 207.689 311.001C207.21 309.293 206.795 307.567 206.446 305.828C200.478 277.05 208.819 247.607 224.624 223.399C229.739 214.634 249.981 190.186 257.63 184.11C259.513 181.969 261.777 180.044 263.94 178.2C266.346 175.798 268.234 174.025 271.026 172.046C265.471 187.388 263.763 203.067 266.549 219.186C266.999 220.654 267.574 222.825 268.198 224.153C276.612 202.369 286.066 185.6 297.932 165.403C307.155 149.53 316.808 133.911 326.88 118.562C331.147 112.014 335.543 105.462 339.993 99.0388C342.612 95.2581 346.046 89.7209 348.898 86.2395C354.381 77.4197 363.35 65.732 369.732 57.0002C377.695 46.1048 388.055 30.927 396.737 20.9276Z"/><defs><linearGradient id="gradient_1" gradientUnits="userSpaceOnUse" x1="270.70355" y1="371.26962" x2="499.52197" y2="168.0217"><stop offset="0" stop-color="#003EBC"/><stop offset="1" stop-color="#0069E8"/></linearGradient></defs><path fill="url(#gradient_1)" d="M396.737 20.9276C406.043 32.2385 414.818 44.944 423.272 56.9553C434.47 72.7904 445.503 88.7413 456.37 104.805L470.895 126.29C475.986 133.704 483.782 145.15 487.954 153.127C502.387 174.934 519.702 203.892 528.962 228.195C528.152 233.083 524.998 240.209 522.939 244.891C514.17 264.825 502.265 281.253 499.676 303.437L499.677 309.117C499.404 310.922 499.397 313.195 498.178 314.3C497.658 313.3 497.222 312.123 496.793 311.066C496.012 312.905 496.689 316.371 496.935 318.575C493.884 312.96 492.555 307.345 491.252 301.106C473.739 316.702 455.075 333.172 446.514 355.723C445.902 357.335 444.03 362.616 443.778 364.143C438.484 380.004 440.863 395.776 445.559 411.087C445.982 412.468 447.151 417.021 445.813 417.8C445.466 417.399 445.108 416.968 444.749 416.582L444.061 417.118C441.653 413.304 438.523 409.309 435.933 405.378C433.503 402.278 431.134 398.261 429.014 394.877C427.607 396.246 426.516 397.554 427.623 399.597C427.217 402.101 427.695 405.58 427.896 408.175C429.169 424.639 430.044 441.653 424.757 457.568C423.724 454.827 422.208 451.112 419.52 449.808C420.603 445.846 421.3 441.102 421.775 437.032L419.767 435.998C417.864 435.872 415.708 437.905 414.237 439.119C413.59 442.826 413.257 446.751 412.333 450.292C398.22 504.421 352.925 473.498 334.934 440.985C331.331 434.474 330.461 428.554 328.357 421.471C328.011 418.975 328.536 415.762 328.334 413.311C327.642 404.889 327.552 399.129 329.756 391.066C328.402 387.41 326.738 384.158 325.339 380.835C323.85 377.299 319.599 369.192 321.404 365.625C321.7 365.04 322.858 361.704 322.885 361.285C323.496 352.002 320.816 340.718 318.57 331.908L318.01 331.677C317.407 332.389 317.128 332.824 316.348 333.33L315.721 332.551C315.574 331.354 315.717 331.265 315.032 330.238L314.377 326.438C313.007 307.054 303.053 282.921 292.204 266.52C291.007 264.709 284.287 255.987 282.515 255.493L282.244 256.316C282.244 258.107 282.643 260.512 281.042 261.64C279.817 262.503 276.266 261.59 275.154 260.84C274.419 248.518 272.026 239.781 268.806 228.05L268.198 224.153C276.612 202.369 286.066 185.6 297.932 165.403C307.155 149.53 316.808 133.911 326.88 118.562C331.147 112.014 335.543 105.462 339.993 99.0388C342.612 95.2581 346.046 89.7209 348.898 86.2395C354.381 77.4197 363.35 65.732 369.732 57.0002C377.695 46.1048 388.055 30.927 396.737 20.9276Z"/><defs><linearGradient id="gradient_2" gradientUnits="userSpaceOnUse" x1="356.97241" y1="240.91754" x2="478.30402" y2="114.68952"><stop offset="0" stop-color="#0475F9"/><stop offset="1" stop-color="#1BF3FE"/></linearGradient></defs><path fill="url(#gradient_2)" d="M396.737 20.9276C406.043 32.2385 414.818 44.944 423.272 56.9553C434.47 72.7904 445.503 88.7413 456.37 104.805L470.895 126.29C475.986 133.704 483.782 145.15 487.954 153.127C488.206 154.281 488.37 154.928 488.726 156.05C487.895 157.017 488.4 156.755 487.202 156.934C488.357 160.888 490.544 164.856 492.271 168.597C502.637 191.06 512.385 217.717 508.223 242.787C507.553 246.827 506.693 251.237 504.987 254.955C503.928 255.564 503.977 255.414 502.686 255.484C491.823 263.534 493.403 278.709 481.054 283.173C473.764 285.808 471.213 284.94 465.279 286.087C461.764 291.334 460.064 293.606 453.515 295.265C439.911 298.71 423.04 289.474 410.408 284.693C404.8 282.571 403.239 283.482 397.364 279.774C397.11 279.44 396.771 278.98 396.739 278.568C396.618 275.605 393.319 275.926 391.734 274.139C375.749 256.12 357.368 240.409 340.614 223.121C333.973 216.268 325.744 210.445 319.331 203.509C325.428 188.375 327.925 174.205 335.249 158.077C334.473 155.003 334.471 151.18 334.478 148.005C334.483 145.434 335.773 123.814 336.177 122.736C338.833 115.653 344.977 109.592 347.273 102.586C348.137 99.9491 347.698 96.6531 348.184 93.8588L348.469 94.0201L348.739 95.7008C350.32 93.5357 350.654 86.0537 352.237 81.9672C351.366 83.5302 350.656 85.6365 349.397 86.7616L348.898 86.2395C354.381 77.4197 363.35 65.732 369.732 57.0002C377.695 46.1048 388.055 30.927 396.737 20.9276Z"/><defs><linearGradient id="gradient_3" gradientUnits="userSpaceOnUse" x1="374.74658" y1="204.4003" x2="477.134" y2="121.7548"><stop offset="0" stop-color="#0062F2"/><stop offset="1" stop-color="#009CFF"/></linearGradient></defs><path fill="url(#gradient_3)" d="M396.737 20.9276C406.043 32.2385 414.818 44.944 423.272 56.9553C434.47 72.7904 445.503 88.7413 456.37 104.805L470.895 126.29C475.986 133.704 483.782 145.15 487.954 153.127C488.206 154.281 488.37 154.928 488.726 156.05C487.895 157.017 488.4 156.755 487.202 156.934C488.357 160.888 490.544 164.856 492.271 168.597C502.637 191.06 512.385 217.717 508.223 242.787C507.553 246.827 506.693 251.237 504.987 254.955C503.928 255.564 503.977 255.414 502.686 255.484C491.823 263.534 493.403 278.709 481.054 283.173C473.764 285.808 471.213 284.94 465.279 286.087C466.964 283.162 471.075 280.381 472.405 278.313C475.753 273.111 479.236 264.944 481.458 259.182C494.791 224.612 491.286 199.126 476.69 166.095C475.604 163.315 473.47 157.649 471.757 155.318C463.748 137.695 456.222 125.994 445.974 109.768C439.104 98.8032 432.085 87.9323 424.919 77.1584C424.339 75.869 421.249 71.2239 420.372 69.7682C416.506 63.3571 412.51 56.9559 408.194 50.8366C406.151 47.112 402.052 41.3832 399.559 37.7764C397.527 41.5392 395.181 45.0562 392.949 48.7007C383.768 63.6951 375.531 79.2532 367.804 95.0396C366.255 98.2032 364.117 101.23 362.459 104.413L344.547 139.517C342.233 144.154 337.622 154.273 335.249 158.077C334.473 155.003 334.471 151.18 334.478 148.005C334.483 145.434 335.773 123.814 336.177 122.736C338.833 115.653 344.977 109.592 347.273 102.586C348.137 99.9491 347.698 96.6531 348.184 93.8588L348.469 94.0201L348.739 95.7008C350.32 93.5357 350.654 86.0537 352.237 81.9672C351.366 83.5302 350.656 85.6365 349.397 86.7616L348.898 86.2395C354.381 77.4197 363.35 65.732 369.732 57.0002C377.695 46.1048 388.055 30.927 396.737 20.9276Z"/><path fill="#88F7FD" d="M424.919 77.1584C432.085 87.9323 439.104 98.8032 445.974 109.768C456.222 125.994 463.748 137.695 471.757 155.318L471.417 155.891C467.113 158.038 456.845 151.102 450.64 152.393C450.553 151.037 449.994 148.939 449.674 147.551C448.372 146.624 446.24 146.27 444.558 146.198C428.941 145.532 406.383 100.983 414.06 88.9223L412 83.6587C414.187 82.8696 420.178 90.3684 422.857 89.0056C423.04 87.7099 421.942 83.9663 421.666 82.1951C424.858 81.0153 423.461 80.6362 424.663 77.7547L424.919 77.1584Z"/><path fill="#3CE8FB" d="M414.06 88.9223L414.309 89.5478C418.149 99.3031 418.833 114.393 428.625 120.196C432.109 122.261 435.14 119.425 437.016 116.702C436.904 117.36 436.317 120.688 436.476 120.942C439.962 126.533 444.849 137.593 448.11 142.59C448.953 143.08 449.595 142.851 450.591 142.713L450.932 143.211C450.078 144.023 450.375 143.751 449.187 144.214C449.322 145.385 449.476 146.389 449.674 147.551C448.372 146.624 446.24 146.27 444.558 146.198C428.941 145.532 406.383 100.983 414.06 88.9223Z"/><path fill="#3CE8FB" d="M408.194 50.8366C412.51 56.9559 416.506 63.3571 420.372 69.7682C421.249 71.2239 424.339 75.869 424.919 77.1584L424.663 77.7547C423.461 80.6362 424.858 81.0153 421.666 82.1951C421.942 83.9663 423.04 87.7099 422.857 89.0056C420.178 90.3684 414.187 82.8696 412 83.6587C407.877 76.8594 407.084 67.642 407.703 59.9159C407.75 59.3178 408.275 50.6129 408.194 50.8366Z"/><path fill="#3CE8FB" d="M450.64 152.393C456.845 151.102 467.113 158.038 471.417 155.891L471.757 155.318C473.47 157.649 475.604 163.315 476.69 166.095C476.376 166.554 476.601 166.335 475.912 166.626C471.893 163.321 462.56 165.196 457.518 165.149C454.242 165.119 450.618 155.131 450.64 152.393Z"/><path fill="#FDFBFE" d="M462.149 262.436C468.963 262.772 467.25 267.172 463.444 270.409C461.689 270.801 461.578 270.876 459.981 270.302C457.578 267.679 460.313 264.498 462.149 262.436Z"/><path fill="#88F7FD" d="M481.369 198.892C482.966 200.967 482.399 204.524 479.166 205.044C477.753 204.66 477.484 204.077 476.555 202.93C476.027 201.552 475.753 201.575 476.081 200.446C477.29 201.109 478.583 201.907 479.949 201.756C481.166 200.633 480.823 200.755 481.369 198.892Z"/><path fill="#88F7FD" d="M475.701 218.616C476.73 219.208 476.732 219.127 477.354 220.115C477.501 221.542 476.736 222.351 475.941 223.62C475.167 223.757 475.556 223.734 474.728 223.453C474.049 221.707 474.968 220.212 475.701 218.616Z"/><path fill="#3CE8FB" d="M445.823 280.494C446.609 280.839 446.325 280.687 446.947 281.369C447.149 282.821 446.723 283.413 446.131 284.761C445.291 284.799 445.706 284.9 444.921 284.343C444.674 283.008 445.323 281.8 445.823 280.494Z"/><defs><linearGradient id="gradient_4" gradientUnits="userSpaceOnUse" x1="332.06934" y1="268.06076" x2="358.72336" y2="240.55112"><stop offset="0" stop-color="#005BF8"/><stop offset="1" stop-color="#0477F9"/></linearGradient></defs><path fill="url(#gradient_4)" d="M319.331 203.509C325.744 210.445 333.973 216.268 340.614 223.121C357.368 240.409 375.749 256.12 391.734 274.139C393.319 275.926 396.618 275.605 396.739 278.568C396.771 278.98 397.11 279.44 397.364 279.774C389.815 275.731 383.315 276.876 375.79 272.123C363.937 264.635 352.134 256.533 345.005 244.051C344.368 242.937 343.483 240.727 342.392 240.191C341.927 244.22 354.983 260.142 355.042 262.406C351.573 264.981 340.325 258.782 337.283 256.193C341.156 268.64 346.15 266.934 353.715 276.667L350.927 277.367C348.86 277.773 344.086 275.213 342.197 274.287C328.198 267.421 314.807 254.991 313.817 238.459C313.169 227.635 316.418 214.066 319.331 203.509Z"/><path fill="#FCFD62" d="M437.574 403.876C435.372 397.419 433.451 390.687 433.1 383.816C431.132 345.343 460.335 315.5 488.269 293.378C490.04 291.975 493.312 288.317 495.223 288.19C496.022 289.201 495.71 289.608 495.723 291.272C495.814 294.405 495.483 300.658 497.054 303.037C498.101 303.636 498.201 303.834 499.676 303.437L499.677 309.117C499.404 310.922 499.397 313.195 498.178 314.3C497.658 313.3 497.222 312.123 496.793 311.066C496.012 312.905 496.689 316.371 496.935 318.575C493.884 312.96 492.555 307.345 491.252 301.106C473.739 316.702 455.075 333.172 446.514 355.723C445.902 357.335 444.03 362.616 443.778 364.143C438.484 380.004 440.863 395.776 445.559 411.087C445.982 412.468 447.151 417.021 445.813 417.8C445.466 417.399 445.108 416.968 444.749 416.582L444.061 417.118C441.653 413.304 438.523 409.309 435.933 405.378C437.172 405.057 437.065 404.88 437.574 403.876Z"/><path fill="#0146A8" d="M495.723 291.272C495.814 294.405 495.483 300.658 497.054 303.037C498.101 303.636 498.201 303.834 499.676 303.437L499.677 309.117C499.404 310.922 499.397 313.195 498.178 314.3C497.658 313.3 497.222 312.123 496.793 311.066C495.174 305.525 495.176 297.093 495.723 291.272Z"/><path fill="#307D0B" d="M437.574 403.876C439.947 408.412 441.928 412.298 444.749 416.582L444.061 417.118C441.653 413.304 438.523 409.309 435.933 405.378C437.172 405.057 437.065 404.88 437.574 403.876Z"/><path fill="#DCF517" d="M422.094 381.432C424.203 385.992 426.255 390.693 429.014 394.877C427.607 396.246 426.516 397.554 427.623 399.597C427.217 402.101 427.695 405.58 427.896 408.175C429.169 424.639 430.044 441.653 424.757 457.568C423.724 454.827 422.208 451.112 419.52 449.808C420.603 445.846 421.3 441.102 421.775 437.032C423.795 418.19 421.75 400.325 422.094 381.432Z"/><path fill="#0146A8" d="M353.715 276.667C359.612 281.789 363.757 284.992 360.295 292.948C354.317 286.823 356.04 281.768 350.927 277.367L353.715 276.667Z"/><path fill="#B3E919" d="M527.841 174.226C530.485 176.601 533.224 178.77 535.829 181.214C541.028 185.224 546.956 192.147 551.315 197.049C570.355 218.465 586.725 245.292 590.347 274.194C591.858 286.253 591.177 308.484 585.702 319.161C584.103 323.383 583.129 325.639 580.625 329.377C579.515 330.627 578.532 331.641 577.631 333.057C579.332 332.156 579.878 331.626 581.342 330.395C591.389 321.794 596.782 315.296 605.904 306.413C606.092 312.324 606.955 334 605.652 338.719C603.168 342.882 597.311 346.593 593.164 350.486L561.868 380.195C558.533 383.413 555.267 386.544 552.14 389.975C551.023 391.2 551.358 392.132 550.576 392.481C544.175 395.333 527.229 406.886 520.649 405.896C510.455 422.114 500.311 438.596 486.659 452.189C484.131 452.991 479.046 454.955 479.723 449.692C477.52 450.882 472.549 456.808 470.093 459.052C461.453 466.945 448.046 479.35 437.886 484.475C435.108 486.158 431.471 488.505 428.623 489.896C423.196 494.876 406.537 499.674 399.247 501.967C398.509 502.199 385.202 504.212 384.657 504.012C387.113 500.922 394.736 498.008 398.042 495.512C409.8 486.632 421.962 472.369 424.757 457.568C430.044 441.653 429.169 424.639 427.896 408.175C427.695 405.58 427.217 402.101 427.623 399.597C426.516 397.554 427.607 396.246 429.014 394.877C431.134 398.261 433.503 402.278 435.933 405.378C438.523 409.309 441.653 413.304 444.061 417.118L444.749 416.582C445.108 416.968 445.466 417.399 445.813 417.8C447.151 417.021 445.982 412.468 445.559 411.087C440.863 395.776 438.484 380.004 443.778 364.143C444.03 362.616 445.902 357.335 446.514 355.723C455.075 333.172 473.739 316.702 491.252 301.106C492.555 307.345 493.884 312.96 496.935 318.575C496.689 316.371 496.012 312.905 496.793 311.066C497.222 312.123 497.658 313.3 498.178 314.3C499.397 313.195 499.404 310.922 499.677 309.117L499.676 303.437C502.265 281.253 514.17 264.825 522.939 244.891C524.998 240.209 528.152 233.083 528.962 228.195C535.172 208.253 533.594 193.766 527.841 174.226Z"/><defs><linearGradient id="gradient_5" gradientUnits="userSpaceOnUse" x1="410.51822" y1="400.1738" x2="467.64059" y2="460.13257"><stop offset="0" stop-color="#B5E918"/><stop offset="1" stop-color="#5FCD1E"/></linearGradient></defs><path fill="url(#gradient_5)" d="M465.047 355.006C467.676 356.772 470.728 359.933 473.212 362.035C484.567 371.644 494.647 381.917 508.203 388.386C524.019 395.934 522.142 379.069 526.881 377.329C514.314 403.809 499.42 427.824 479.723 449.692C477.52 450.882 472.549 456.808 470.093 459.052C461.453 466.945 448.046 479.35 437.886 484.475C435.108 486.158 431.471 488.505 428.623 489.896C423.196 494.876 406.537 499.674 399.247 501.967C398.509 502.199 385.202 504.212 384.657 504.012C387.113 500.922 394.736 498.008 398.042 495.512C409.8 486.632 421.962 472.369 424.757 457.568C430.044 441.653 429.169 424.639 427.896 408.175C427.695 405.58 427.217 402.101 427.623 399.597C426.516 397.554 427.607 396.246 429.014 394.877C431.134 398.261 433.503 402.278 435.933 405.378C438.523 409.309 441.653 413.304 444.061 417.118L444.749 416.582C445.108 416.968 445.466 417.399 445.813 417.8C447.151 417.021 445.982 412.468 445.559 411.087C440.863 395.776 438.484 380.004 443.778 364.143C443.993 365.751 443.533 366.625 443.73 368.632C444.546 368.971 445.938 368.724 446.843 368.516C454.811 366.683 459.1 361.629 463.376 355.431L464.006 355.708L465.047 355.006Z"/><path fill="#FCFD62" d="M429.014 394.877C431.134 398.261 433.503 402.278 435.933 405.378C438.523 409.309 441.653 413.304 444.061 417.118C444.693 417.916 444.947 418.111 445.26 419.081L444.766 419.212C437.569 415.389 431.599 406.458 427.623 399.597C426.516 397.554 427.607 396.246 429.014 394.877Z"/><path fill="#31BC26" d="M428.623 489.896L428.712 489.22C429.97 487.377 435.711 483.823 437.886 484.475C435.108 486.158 431.471 488.505 428.623 489.896Z"/><defs><linearGradient id="gradient_6" gradientUnits="userSpaceOnUse" x1="478.8526" y1="230.3298" x2="586.47839" y2="362.42706"><stop offset="0" stop-color="#60DB1B"/><stop offset="1" stop-color="#2EB92C"/></linearGradient></defs><path fill="url(#gradient_6)" d="M535.829 181.214C541.028 185.224 546.956 192.147 551.315 197.049C570.355 218.465 586.725 245.292 590.347 274.194C591.858 286.253 591.177 308.484 585.702 319.161C584.103 323.383 583.129 325.639 580.625 329.377C579.515 330.627 578.532 331.641 577.631 333.057C579.332 332.156 579.878 331.626 581.342 330.395C591.389 321.794 596.782 315.296 605.904 306.413C606.092 312.324 606.955 334 605.652 338.719C603.168 342.882 597.311 346.593 593.164 350.486L561.868 380.195C558.533 383.413 555.267 386.544 552.14 389.975C551.023 391.2 551.358 392.132 550.576 392.481C544.175 395.333 527.229 406.886 520.649 405.896C525.312 396.854 531.018 385.851 535.044 376.645C550.01 342.424 560.996 294.448 559.128 257.006C558.425 241.78 555.657 226.719 550.899 212.237C548.846 205.859 546.501 199.782 543.3 193.864C541.206 189.993 537.197 185.294 535.829 181.214Z"/><path fill="#0CA338" d="M577.389 326.263C580.036 323.323 581.981 320.713 585.702 319.161C584.103 323.383 583.129 325.639 580.625 329.377C579.515 330.627 578.532 331.641 577.631 333.057C571.258 339.547 565.768 342.461 557.432 345.544C563.459 339.451 570.517 333.52 575.863 326.912C576.42 326.224 578.336 322.531 579.08 321.343L579.349 321.58C578.611 323.176 578.033 324.636 577.389 326.263Z"/><path fill="#FCFD62" d="M527.841 174.226C530.485 176.601 533.224 178.77 535.829 181.214C537.197 185.294 541.206 189.993 543.3 193.864C546.501 199.782 548.846 205.859 550.899 212.237C555.657 226.719 558.425 241.78 559.128 257.006C560.996 294.448 550.01 342.424 535.044 376.645C531.018 385.851 525.312 396.854 520.649 405.896C510.455 422.114 500.311 438.596 486.659 452.189C484.131 452.991 479.046 454.955 479.723 449.692C499.42 427.824 514.314 403.809 526.881 377.329C529.296 374.409 533.255 363.028 534.713 359.232C547.56 325.788 551.704 299.788 552.77 264.325L552.118 264.239C551.156 264.107 550.595 263.937 549.661 263.675C545.923 264.242 537.469 274.386 535.222 277.602C535.049 278.279 534.866 278.953 534.675 279.624C534.134 281.501 534.019 281.979 532.282 282.933C528.448 282.949 527.253 276.455 526.394 273.508C525.232 273.856 523.007 275.06 521.835 275.65L520.641 274.775C519.155 273.676 519.085 273.518 517.201 273.34C505.322 299.368 503.969 309.164 512.138 336.173C510.507 334.12 505.222 325.949 504.282 325.138C503.52 323.707 502.439 320.737 501.793 319.116L499.959 318.584C499.093 316.828 498.734 316.145 498.178 314.3C499.397 313.195 499.404 310.922 499.677 309.117L499.676 303.437C502.265 281.253 514.17 264.825 522.939 244.891C524.998 240.209 528.152 233.083 528.962 228.195C535.172 208.253 533.594 193.766 527.841 174.226Z"/><path fill="#DCF517" d="M534.711 185.308C537.22 188.514 539.413 194.229 541.031 198.091C549.997 219.492 552.803 241.252 552.77 264.325L552.118 264.239C551.156 264.107 550.595 263.937 549.661 263.675C545.923 264.242 537.469 274.386 535.222 277.602C535.049 278.279 534.866 278.953 534.675 279.624C534.134 281.501 534.019 281.979 532.282 282.933C528.448 282.949 527.253 276.455 526.394 273.508C525.232 273.856 523.007 275.06 521.835 275.65L520.641 274.775C519.155 273.676 519.085 273.518 517.201 273.34C518.722 269.077 523.733 260.051 525.817 255.739C534.288 238.219 541.527 222.412 538.278 202.303C537.316 196.348 535.81 191.137 534.711 185.308Z"/><path fill="#FCFD62" d="M526.394 273.508C526.062 270.633 528.949 266.38 531.684 265.692C535.77 266.876 535.184 274.056 535.222 277.602C535.049 278.279 534.866 278.953 534.675 279.624C534.134 281.501 534.019 281.979 532.282 282.933C528.448 282.949 527.253 276.455 526.394 273.508Z"/><path fill="#00498F" d="M499.677 309.117C500.26 312.984 500.701 315.369 501.793 319.116L499.959 318.584C499.093 316.828 498.734 316.145 498.178 314.3C499.397 313.195 499.404 310.922 499.677 309.117Z"/><path fill="#B3E919" d="M463.376 355.431C462.096 353.333 458.251 350.706 456.201 349.235L456.57 349.022C458.729 349.458 463.02 353.389 465.047 355.006L464.006 355.708L463.376 355.431Z"/><path fill="#307D0B" d="M501.793 319.116C502.439 320.737 503.52 323.707 504.282 325.138C502.255 324.779 500.717 320.322 499.959 318.584L501.793 319.116Z"/><path fill="#DCF517" d="M263.94 178.2C266.346 175.798 268.234 174.025 271.026 172.046C265.471 187.388 263.763 203.067 266.549 219.186C266.999 220.654 267.574 222.825 268.198 224.153L268.806 228.05C272.026 239.781 274.419 248.518 275.154 260.84C276.266 261.59 279.817 262.503 281.042 261.64C282.643 260.512 282.244 258.107 282.244 256.316L282.515 255.493C284.287 255.987 291.007 264.709 292.204 266.52C303.053 282.921 313.007 307.054 314.377 326.438C314.101 326.791 313.76 327.227 313.354 327.748C312.466 334.539 314.814 341.242 312.334 347.849C312.311 345.613 312.391 341.952 311.982 339.894C308.668 333.963 285.853 343.81 281.217 346.414C279.766 347.233 278.325 348.069 276.893 348.921L276.778 347.728L276.773 346.836C275.305 345.844 269.653 347.95 268.822 349.365L269.124 350.639C267.044 351.954 265.511 349.469 262.959 351.451C269.906 371.889 278.435 390.984 289.028 409.815C290.891 413.127 293.078 417.781 294.945 420.825C295.054 422.561 295.296 422.128 294.457 423.2C292.43 423.827 290.776 422.204 289.022 421.611L288.783 421.573C284.345 413.204 279.013 404.709 274.318 395.829C271.672 396.269 268.738 394.504 265.668 393.733L265.231 393.627C251.251 389.392 235.544 388.332 221.113 384.873C213.613 383.075 210.681 380.818 203.339 379.612C202.342 378.469 199.735 371.045 199.09 369.411C190.625 347.956 189.522 330.271 189.994 307.608C194.293 311.686 198.038 315.716 202.182 319.927C204.787 321.903 211.078 326.788 214.085 327.654C213.525 326.246 212.986 324.83 212.47 323.405C210.198 319.108 208.937 315.647 207.689 311.001C207.21 309.293 206.795 307.567 206.446 305.828C200.478 277.05 208.819 247.607 224.624 223.399C229.739 214.634 249.981 190.186 257.63 184.11C259.513 181.969 261.777 180.044 263.94 178.2Z"/><path fill="#31BC26" d="M189.994 307.608C194.293 311.686 198.038 315.716 202.182 319.927C204.787 321.903 211.078 326.788 214.085 327.654C213.525 326.246 212.986 324.83 212.47 323.405C210.198 319.108 208.937 315.647 207.689 311.001C211.31 313.282 209.972 316.652 214.382 320.413L214.827 320.717C222.128 325.755 227.304 333.478 236.219 337.024C241.585 339.159 247.041 343.722 253.062 341.153C259.693 363.504 264.596 375.129 274.318 395.829C271.672 396.269 268.738 394.504 265.668 393.733L265.231 393.627C251.251 389.392 235.544 388.332 221.113 384.873C213.613 383.075 210.681 380.818 203.339 379.612C202.342 378.469 199.735 371.045 199.09 369.411C190.625 347.956 189.522 330.271 189.994 307.608Z"/><path fill="#47C924" d="M207.689 311.001C211.31 313.282 209.972 316.652 214.382 320.413L213.969 321.099C215.302 323.797 218.507 328.436 218.383 330.848C217.955 331.502 217.796 331.616 217.608 332.369C216.47 331.029 215.527 328.74 214.085 327.654C213.525 326.246 212.986 324.83 212.47 323.405C210.198 319.108 208.937 315.647 207.689 311.001Z"/><path fill="#B3E919" d="M202.182 319.927C204.787 321.903 211.078 326.788 214.085 327.654C215.527 328.74 216.47 331.029 217.608 332.369L217.614 332.779C215.722 332.155 215.246 331.807 213.56 332.521C210.202 329.442 206.551 326.373 203.404 323.106C202.14 321.794 202.079 321.407 202.182 319.927Z"/><path fill="#B3E919" d="M213.56 332.521C215.246 331.807 215.722 332.155 217.614 332.779C219.582 335.785 222.063 338.083 224.597 340.595C220.59 338.639 216.744 335.625 213.56 332.521Z"/><defs><linearGradient id="gradient_7" gradientUnits="userSpaceOnUse" x1="266.50406" y1="262.73434" x2="292.27374" y2="348.8703"><stop offset="0" stop-color="#E0F715"/><stop offset="1" stop-color="#71D31F"/></linearGradient></defs><path fill="url(#gradient_7)" d="M282.244 256.316L282.515 255.493C284.287 255.987 291.007 264.709 292.204 266.52C303.053 282.921 313.007 307.054 314.377 326.438C314.101 326.791 313.76 327.227 313.354 327.748C312.466 334.539 314.814 341.242 312.334 347.849C312.311 345.613 312.391 341.952 311.982 339.894C308.668 333.963 285.853 343.81 281.217 346.414C279.766 347.233 278.325 348.069 276.893 348.921L276.778 347.728L276.773 346.836C275.305 345.844 269.653 347.95 268.822 349.365L269.124 350.639C267.044 351.954 265.511 349.469 262.959 351.451C259.599 345.213 251.961 313.066 251.293 305.725C251.499 305.299 251.636 305.203 251.946 304.832C253.735 304.742 257.424 303.984 259.511 303.337C268.52 300.546 280.397 302.321 288.935 299.026C290.708 298.341 297.924 290.744 299.189 289.107C299.206 285.965 292.189 273.997 289.654 271.069C288.646 269.904 287.674 269.798 286.248 269.815C285.953 268.268 285.18 262.937 284.421 262.018L284.075 262.473L282.764 263.656C282.933 261.197 282.758 258.727 282.244 256.316Z"/><path fill="#B3E919" d="M224.624 223.399C225.26 223.894 226.526 224.629 226.393 225.475C224.334 238.572 220.365 251.477 221.46 264.961C221.608 266.774 224.512 272.409 225.657 273.911L226.029 273.907L226.265 272.518C227.21 272.792 229.37 274.808 230.645 275.866C233.92 278.584 238.946 280.137 241.667 282.956C241.929 283.226 242.253 285.081 242.333 285.506C243.786 297.354 245.139 306.268 247.702 317.904C248.815 322.959 252.63 336.858 253.062 341.153C247.041 343.722 241.585 339.159 236.219 337.024C227.304 333.478 222.128 325.755 214.827 320.717L214.382 320.413C209.972 316.652 211.31 313.282 207.689 311.001C207.21 309.293 206.795 307.567 206.446 305.828C200.478 277.05 208.819 247.607 224.624 223.399Z"/><path fill="#DCF517" d="M257.63 184.11C259.513 181.969 261.777 180.044 263.94 178.2C264.472 180.172 264.102 182.713 262.791 184.305L261.945 183.983C260.482 184.861 259.131 187.348 257.687 188.795C238.729 218.301 241.377 252.654 242.333 285.506C242.253 285.081 241.929 283.226 241.667 282.956C238.946 280.137 233.92 278.584 230.645 275.866C229.37 274.808 227.21 272.792 226.265 272.518L226.029 273.907L225.657 273.911C224.512 272.409 221.608 266.774 221.46 264.961C220.365 251.477 224.334 238.572 226.393 225.475C226.526 224.629 225.26 223.894 224.624 223.399C229.739 214.634 249.981 190.186 257.63 184.11Z"/><path fill="#FCFD62" d="M257.63 184.11C259.513 181.969 261.777 180.044 263.94 178.2C264.472 180.172 264.102 182.713 262.791 184.305L261.945 183.983C260.482 184.861 259.131 187.348 257.687 188.795C258.06 187.795 259.794 184.859 260.406 183.65L259.91 183.114C258.951 183.857 258.835 183.975 257.63 184.11Z"/><defs><linearGradient id="gradient_8" gradientUnits="userSpaceOnUse" x1="303.39441" y1="305.22104" x2="237.73936" y2="299.99283"><stop offset="0" stop-color="#CDF538"/><stop offset="1" stop-color="#FFFF83"/></linearGradient></defs><path fill="url(#gradient_8)" d="M257.687 188.795C259.131 187.348 260.482 184.861 261.945 183.983L262.791 184.305C258.905 191.853 257.978 195.583 255.276 203.185C246.773 227.108 245.971 251.149 247.508 276.265C248.122 286.3 248.914 295.567 251.213 305.515C251.24 305.585 251.266 305.655 251.293 305.725C251.961 313.066 259.599 345.213 262.959 351.451C269.906 371.889 278.435 390.984 289.028 409.815C290.891 413.127 293.078 417.781 294.945 420.825C295.054 422.561 295.296 422.128 294.457 423.2C292.43 423.827 290.776 422.204 289.022 421.611L288.783 421.573C284.345 413.204 279.013 404.709 274.318 395.829C264.596 375.129 259.693 363.504 253.062 341.153C252.63 336.858 248.815 322.959 247.702 317.904C245.139 306.268 243.786 297.354 242.333 285.506C241.377 252.654 238.729 218.301 257.687 188.795Z"/><path fill="#FCFD62" d="M282.244 256.316C282.758 258.727 282.933 261.197 282.764 263.656L284.075 262.473L284.421 262.018C285.18 262.937 285.953 268.268 286.248 269.815C285.944 276.149 284.2 279.221 279.466 283.603C277.471 285.45 271.561 289.891 269.154 290.715L268.446 290.608L268.377 289.892C268.331 289.208 268.377 288.608 268.401 287.918C268.699 286.453 271.226 282.327 272.028 280.484C274.836 274.032 274.974 267.707 275.154 260.84C276.266 261.59 279.817 262.503 281.042 261.64C282.643 260.512 282.244 258.107 282.244 256.316Z"/><path fill="#0146A8" d="M282.244 256.316C282.758 258.727 282.933 261.197 282.764 263.656C280.444 271.881 275.328 282.661 268.401 287.918C268.699 286.453 271.226 282.327 272.028 280.484C274.836 274.032 274.974 267.707 275.154 260.84C276.266 261.59 279.817 262.503 281.042 261.64C282.643 260.512 282.244 258.107 282.244 256.316Z"/><path fill="#FCFD62" d="M268.806 228.05C265.671 225.608 263.158 222.761 266.549 219.186C266.999 220.654 267.574 222.825 268.198 224.153L268.806 228.05Z"/><path fill="#31BC26" d="M276.893 348.921C278.325 348.069 279.766 347.233 281.217 346.414C285.853 343.81 308.668 333.963 311.982 339.894C311.669 345.614 312.56 351.09 312.538 356.751C312.518 361.889 311.93 367.139 311.996 372.293C311.496 392.446 313.228 412.794 319.234 432.122C320.268 435.45 322.937 443.398 324.58 446.202C326.274 445.776 325.633 444.657 328.115 443.675C337.256 463.275 347.475 477.434 365.957 489.566C369.79 492.082 374.28 493.988 378.291 496.189C372.151 495.094 360.818 492.878 354.975 489.862C338.342 481.277 320.124 465.034 308.531 450.259C308.438 450.09 308.345 449.922 308.252 449.754C304.786 445.67 290.826 426.131 289.022 421.611C290.776 422.204 292.43 423.827 294.457 423.2C295.296 422.128 295.054 422.561 294.945 420.825C293.078 417.781 290.891 413.127 289.028 409.815C278.435 390.984 269.906 371.889 262.959 351.451C265.511 349.469 267.044 351.954 269.124 350.639L268.822 349.365C269.653 347.95 275.305 345.844 276.773 346.836L276.778 347.728L276.893 348.921Z"/><path fill="#B3E919" d="M294.945 420.825C298.7 425.674 302.255 431.825 305.894 436.931C309.229 441.611 313.134 446.092 316.256 450.732C313.643 448.915 311.565 446.335 309.244 446.72C308.292 447.886 308.55 448.022 308.252 449.754C304.786 445.67 290.826 426.131 289.022 421.611C290.776 422.204 292.43 423.827 294.457 423.2C295.296 422.128 295.054 422.561 294.945 420.825Z"/><path fill="#47C924" d="M276.778 347.728L276.893 348.921C274.624 350.094 273.767 351.164 271.38 352.046L271.592 351.608L271.782 351.764C272.165 350.398 275.498 348.561 276.778 347.728Z"/><path fill="#B3E919" d="M416.898 458.543C418.057 455.57 418.715 452.878 419.52 449.808C422.208 451.112 423.724 454.827 424.757 457.568C421.962 472.369 409.8 486.632 398.042 495.512C394.736 498.008 387.113 500.922 384.657 504.012C385.202 504.212 398.509 502.199 399.247 501.967C406.537 499.674 423.196 494.876 428.623 489.896C431.471 488.505 435.108 486.158 437.886 484.475C448.046 479.35 461.453 466.945 470.093 459.052C472.549 456.808 477.52 450.882 479.723 449.692C479.046 454.955 484.131 452.991 486.659 452.189C484.839 455.152 478.75 460.977 476.142 463.51C456.603 482.489 430.59 498.459 403.962 504.855C389.644 508.293 369.614 508.253 354.655 507.779L355.189 507.622C360.088 506.215 365.324 505.939 370.138 504.478C390.38 498.335 410.634 478.963 416.898 458.543Z"/><path fill="#47C924" d="M314.377 326.438L315.032 330.238C315.011 331.996 315.643 342.577 316.066 343.779C315.914 374.161 315.25 407.493 325.431 436.461C326.252 439.18 327.012 441.041 328.115 443.675C325.633 444.657 326.274 445.776 324.58 446.202C322.937 443.398 320.268 435.45 319.234 432.122C313.228 412.794 311.496 392.446 311.996 372.293C311.93 367.139 312.518 361.889 312.538 356.751C312.56 351.09 311.669 345.614 311.982 339.894C312.391 341.952 312.311 345.613 312.334 347.849C314.814 341.242 312.466 334.539 313.354 327.748C313.76 327.227 314.101 326.791 314.377 326.438Z"/><path fill="#0CA338" d="M265.231 393.627L265.668 393.733C268.738 394.504 271.672 396.269 274.318 395.829C279.013 404.709 284.345 413.204 288.783 421.573C287.116 421.366 285.845 422.821 284.703 422.289C275.795 418.143 269.499 401.849 265.231 393.627Z"/><path fill="#004F60" d="M316.066 343.779C316.69 344.791 316.656 344.728 316.883 345.899L317.117 345.942C319.437 347.73 319.156 352.144 318.421 354.703L317.831 358.555C316.823 365.934 317.947 367.75 317.79 373.99C317.424 388.604 318.288 400.985 320.935 415.399C321.837 420.311 325.347 432.678 325.431 436.461C315.25 407.493 315.914 374.161 316.066 343.779Z"/><path fill="#00498F" d="M317.831 358.555L316.965 358.962C315.952 357.597 315.549 351.66 317.113 350.055L318.026 350.142C318.673 351.559 318.455 353.093 318.421 354.703L317.831 358.555Z"/><path fill="#006F5D" d="M419.767 435.998L421.775 437.032C421.3 441.102 420.603 445.846 419.52 449.808C418.715 452.878 418.057 455.57 416.898 458.543C416.273 458.161 416.587 458.415 416.013 457.716C416.185 454.098 417.605 449.344 418.937 445.966C419.903 443.516 419.649 438.9 419.767 435.998Z"/><path fill="#00498F" d="M315.032 330.238C315.717 331.265 315.574 331.354 315.721 332.551L316.348 333.33C317.128 332.824 317.407 332.389 318.01 331.677L318.57 331.908C316.778 335.232 318.305 341.895 317.121 345.6C317.12 345.714 317.118 345.828 317.117 345.942L316.883 345.899C316.656 344.728 316.69 344.791 316.066 343.779C315.643 342.577 315.011 331.996 315.032 330.238Z"/><path fill="#0CA338" d="M537.679 438.553L537.837 438.68L537.791 439.229C534.225 441.203 514.993 444.091 509.542 444.994L509.222 444.604L509.357 443.987C512.334 442.701 533.266 439.28 537.679 438.553Z"/><defs><linearGradient id="gradient_9" gradientUnits="userSpaceOnUse" x1="397.17316" y1="498.1297" x2="397.26181" y2="560.76794"><stop offset="0" stop-color="#0136A0"/><stop offset="1" stop-color="#0071CF"/></linearGradient></defs><path fill="url(#gradient_9)" d="M198.288 498.179C202.601 497.68 205.351 497.431 209.666 497.856C206.315 499.028 202.87 499.911 199.368 500.494C190.015 502.851 175.347 505.265 169.439 513.628C165.87 518.681 182.034 526.167 185.247 527.294C217.121 538.475 252.51 542.01 286.028 544.65C355.519 549.963 425.298 550.376 494.847 545.887C525.558 543.674 556.256 540.518 586.318 533.644C596.625 531.288 606.917 528.916 616.683 524.8C620.315 523.269 628.858 518.413 625.243 513.59C619.831 506.371 605.687 503.341 597.355 501.279L598.277 500.865L596.648 500.197L596.69 499.733L598.325 499.889L598.697 499.247C617.949 498.032 649.618 506.365 666.839 515.568C670.574 517.565 674.173 523.09 670.705 526.448C659.22 537.569 633.113 543.603 618.019 546.533C572.502 555.371 525.291 558.427 479.08 560.327C413.697 562.966 348.222 562.238 282.914 558.145C243.165 555.621 203.445 552.501 164.501 543.421C153.529 540.863 139.905 537.319 130.378 531.281C127.784 529.637 123.471 526.625 122.979 523.45C122.688 521.569 123.607 519.47 124.854 518.171C139.32 503.091 178.921 499.736 198.288 498.179Z"/><path fill="#0146A8" d="M198.288 498.179C202.601 497.68 205.351 497.431 209.666 497.856C206.315 499.028 202.87 499.911 199.368 500.494L199.59 499.692C200.799 499.165 201.728 498.999 203.032 498.957L202.778 498.425C200.784 498.594 199.965 500.062 198.288 498.179Z"/><path fill="#0146A8" d="M539.007 593.912C550.349 591.897 565.493 596.713 574.199 604.142C583.091 611.841 588.537 622.774 589.327 634.509C590.206 645.642 586.592 656.663 579.29 665.114C571.12 674.551 560.304 679.724 547.938 680.659C535.078 682.131 520.992 678.821 510.935 670.421C502.43 663.221 497.164 652.914 496.313 641.803C494.503 619.4 506.912 599.457 529.854 594.972C532.958 594.366 535.866 594.155 539.007 593.912ZM545.006 663.908C559.681 662.611 570.535 649.678 569.263 635.002C567.992 620.327 555.076 609.452 540.397 610.698C525.682 611.947 514.774 624.9 516.048 639.611C517.322 654.323 530.296 665.207 545.006 663.908Z"/><path fill="#0146A8" d="M195.924 594.299C208.136 592.53 223.744 596.326 233.305 604.267C241.978 611.5 247.39 621.906 248.333 633.159C249.464 644.734 245.961 656.284 238.592 665.282C231.241 674.095 220.079 679.524 208.728 680.616C196.757 682.353 181.222 678.341 171.773 670.718C162.971 663.563 157.433 653.158 156.413 641.862C153.864 615.97 170.149 596.692 195.924 594.299ZM206.404 664.209C208.912 663.597 211.079 663.077 213.412 661.95C231.684 653.123 232.575 623.995 215.113 613.794C209.299 610.398 204.748 610.187 198.177 610.537C194.339 611.314 191.106 612.073 187.802 614.324C172.72 624.598 173.745 650.887 188.952 660.63C194.547 664.215 199.94 664.701 206.404 664.209Z"/><path fill="#0146A8" d="M363.896 594.668C366.724 594.641 370.429 594.908 373.318 595.03C364.776 621.568 355.056 653.207 348.461 680.009L328.412 679.974C324.406 662.435 316.039 642.002 311.819 624.063C307.635 641.58 301.132 662.433 295.904 679.989C289.478 679.906 282.742 680.165 276.294 680.331C271.049 659.925 263.554 640.202 257.7 619.869C255.25 611.504 252.554 603.212 249.615 595.006C256.791 595.025 263.973 594.872 271.149 595.026C272.625 602.542 275.057 610.488 277.076 617.912C280.5 630.502 284.195 643.064 287.535 655.676C288.776 647.446 293.269 632.697 295.563 624.313C297.541 617.083 301.777 601.729 304.835 595.423C309.026 594.741 314.544 594.708 318.779 594.939C321.168 601.849 323.219 609.63 325.404 616.68C327.666 623.978 329.948 631.113 332.324 638.378C334.081 643.749 334.967 648.372 337.131 653.769C338.28 650.171 339.231 645.572 340.154 641.828L346.682 615.626C348.328 608.984 349.964 601.607 352.32 595.246C356.184 595.184 360.045 594.991 363.896 594.668Z"/><path fill="#0146A8" d="M618.247 595.104C630.05 594.422 646.604 594.239 657.828 597.974C664.374 600.152 668.987 604.62 671.876 610.862C675.084 617.763 675.42 625.655 672.811 632.803C669.475 641.835 664.723 644.456 656.611 648.228C664.035 658.692 669.312 669.729 677.485 680.056C669.568 679.987 661.65 680.074 653.736 680.317C652.907 678.913 651.949 676.958 651.164 675.477C646.501 667.03 641.582 658.731 636.917 650.235C631.564 650.439 626.153 650.365 620.791 650.347C621.014 660.387 620.802 669.739 621.199 680.033C614.486 679.907 607.772 679.862 601.057 679.898C601.208 651.639 601.172 623.379 600.95 595.121C606.489 595.37 612.716 595.301 618.247 595.104ZM620.839 634.998C628.253 635.169 636.776 635.646 643.964 634.32C650.869 632.879 655.983 628.806 654.322 620.956C652.106 610.481 639.2 610.412 630.671 610.662L620.97 610.876C620.862 618.916 620.819 626.957 620.839 634.998Z"/><path fill="#0146A8" d="M259.726 497.415C260.824 497.24 262.986 497.219 264.179 497.171C260.552 499.216 241.411 505.895 250.593 511.325C261.213 517.606 274.278 519.377 286.232 521.581C302.741 524.626 319.39 525.813 336.116 526.989C373.14 529.573 410.29 529.815 447.344 527.714C471.815 526.455 496.885 524.827 521.008 520.021C529.088 518.05 542.696 516.175 548.112 509.459C551.868 504.801 534.667 499.092 531.735 498.05C543.801 497.548 563.627 501.275 574.647 506.617C579.07 508.76 581.19 512.115 578.549 516.705C575.093 519.935 569.453 522.235 564.947 523.492C540.731 530.242 511.517 533.373 486.313 534.932C450.175 537.167 412.62 537.424 376.435 537.07C332.31 536.637 286.619 535.23 243.436 525.705C236.432 524.039 229.26 522.329 222.806 519.153C219.414 517.484 213.748 512.956 217.779 509.327C226.804 501.202 248.059 498.503 259.726 497.415Z"/><path fill="#0146A8" d="M687.927 595.002C709.245 594.527 730.572 594.582 751.888 595.168C751.746 600.447 751.863 605.73 752.239 610.997C737.341 610.743 722.587 611.261 707.367 610.923C707.375 616.572 707.529 623.623 707.156 629.153L748.696 629.096L748.683 643.941C736.721 643.622 723.38 643.917 711.308 643.922C709.637 643.889 708.915 643.759 707.364 644.269C706.856 647.755 707.363 660.131 707.464 664.052C722.419 664.169 737.374 664.197 752.329 664.136C752.471 669.085 752.529 675.078 752.311 679.981L707.812 680.158C701.217 680.136 694.812 679.704 688.149 679.82C687.898 660.107 687.823 640.679 688.166 620.959C688.312 612.581 687.641 603.125 687.927 595.002Z"/><path fill="#0146A8" d="M451.55 593.896C467.431 592.562 483.124 598.182 491.964 611.847C487.112 614.615 481.768 617.491 476.482 619.208C472.538 617.317 469.373 613.717 466.008 612.437C459.439 609.939 451.218 609.673 444.701 612.492C438.294 615.163 434.511 619.886 431.823 626.092C425.955 639.635 432.337 657.852 446.756 663.113C454.966 666.053 464.086 664.901 471.307 660.013C473.364 658.642 475.256 656.775 477.327 655.64C477.886 655.335 478.287 655.715 479.131 656.051L493.106 663.083C492.316 664.406 491.434 665.67 490.466 666.868C475.715 685.432 441.445 684.645 424.051 670.317C405.75 655.243 403.996 626.715 418.925 608.674C427.51 598.301 438.76 595.014 451.55 593.896Z"/><path fill="#0146A8" d="M17.8115 594.975C37.6418 595.523 61.1058 595.489 80.9659 595.018L80.8892 610.986C67.9819 610.349 51.4227 611.091 37.9748 610.826L38.02 630.254C49.0786 630.262 68.9415 629.103 78.9615 630.252L78.9488 636.643L79.0152 646.033C65.5657 645.49 51.5178 646.351 37.98 645.789L38.0107 679.983C31.5289 679.822 24.4879 679.836 18.0115 679.888C18.3343 651.563 17.7399 623.304 17.8115 594.975Z"/><path fill="#0146A8" d="M92.9744 594.964C99.5776 595.103 106.325 595.004 112.962 595.075C112.175 616.184 112.657 642.87 112.841 664.19C126.295 664.013 139.758 664.3 153.168 664.071C153.083 666.534 153.444 678.758 152.624 679.949C149.852 679.881 146.698 679.928 143.92 680.026C127.077 680.622 109.865 679.681 93.0675 680.293L93.1719 650.203C92.9663 631.791 92.9004 613.377 92.9744 594.964Z"/><path fill="#0146A8" d="M481.433 705.963C493.615 704.68 504.532 713.512 505.821 725.692C507.109 737.872 498.283 748.792 486.102 750.087C473.912 751.383 462.982 742.549 461.692 730.36C460.402 718.172 469.242 707.247 481.433 705.963ZM486.076 743.678C494.68 742.416 500.641 734.431 499.406 725.824C498.17 717.217 490.203 711.232 481.591 712.441C472.942 713.655 466.924 721.664 468.165 730.309C469.406 738.954 477.434 744.946 486.076 743.678Z"/><path fill="#0146A8" d="M215.161 706.282C227.12 704.665 238.143 713.003 239.839 724.951C241.535 736.898 233.268 747.974 221.331 749.748C209.283 751.539 198.079 743.179 196.368 731.12C194.656 719.061 203.09 707.915 215.161 706.282ZM220.927 743.456C226.468 742.481 231.051 738.591 232.914 733.282C234.776 727.974 233.628 722.073 229.911 717.85C226.194 713.627 220.487 711.738 214.984 712.911C206.684 714.68 201.331 722.772 202.952 731.102C204.572 739.432 212.568 744.928 220.927 743.456Z"/><path fill="#0146A8" d="M526.87 706.925C534.772 706.597 535.469 708.244 540.367 714.392C546.599 722.215 553.587 729.717 559.572 737.701C558.822 728.412 559.156 716.418 559.229 706.926L566.107 706.982C565.485 718.817 566.06 730.784 565.993 742.639C565.98 744.866 566.104 746.881 565.819 749.095L560.825 748.637C553.838 742.116 540.041 724.79 533.4 716.773C534.113 726.593 533.814 738.904 533.796 748.918L527.404 748.532C526.821 744.665 527.088 738.72 527.048 734.69C526.957 725.473 527.286 716.13 526.87 706.925Z"/><path fill="#0146A8" d="M155.546 706.659C162.741 706.027 169.973 707.2 175.565 712.105L172.616 717.353C166.419 712.913 156.309 709.532 150.619 715.947C149.829 716.838 149.65 717.286 149.674 718.455C152.092 724.206 164.548 724.786 169.871 727.898C176.298 731.654 179.098 736.066 174.779 743.088C172.057 747.513 168.225 748.433 163.461 749.504C153.577 749.529 150.914 748.69 142.13 744.262C142.969 742.262 143.596 740.272 144.281 738.218C150.579 741.712 155.468 744.716 163.205 743.554C166.302 743.089 170.437 740.327 169.449 736.568C168.168 732.969 161.533 731.287 158.068 730.567C148.88 728.657 138.755 723.594 144.818 712.602C146.871 708.88 151.492 707.515 155.546 706.659Z"/><path fill="#0146A8" d="M601.905 706.696C610.48 705.923 615.12 707.583 622.057 712.349C620.987 714.134 619.82 715.655 618.589 717.325C613.894 714.789 610.34 712.407 604.819 712.374C601.855 712.356 595.023 714.94 596.184 718.451C598.627 725.845 613.577 724.194 618.92 729.545C621.106 731.733 622.418 732.859 622.697 736.073C623.565 745.12 615.564 748.927 607.867 749.525C602.643 749.149 597.133 748.477 592.245 746.431C586.983 744.228 588.472 742.053 590.592 738.21C596.469 741.511 603.626 745.061 610.588 743.383C612.908 742.824 617.311 739.534 615.876 736.741C613.999 733.308 608.353 731.506 604.578 730.734C595.574 728.893 584.638 723.491 591.117 712.584C593.461 708.64 597.634 707.571 601.905 706.696Z"/><path fill="#0146A8" d="M318.354 706.79L318.763 707.009C320.396 713.046 316.07 736.944 322.937 740.753C338.587 749.435 346.085 738.307 344.303 723.042C343.923 719.789 344.178 711.199 343.852 707.014L350.908 706.985C350.82 710.72 350.638 714.563 350.953 718.276C351.085 726.638 352.117 737.938 345.984 744.507C339.563 751.384 323.923 751.239 317.616 744.527C309.703 736.105 312.138 717.806 312.085 706.951L318.354 706.79Z"/><path fill="#0146A8" d="M370.968 706.978C383.234 707.306 397.676 707.125 409.95 706.92L410.041 712.978C404.945 712.727 399.154 712.935 393.994 713.018C394.036 719.442 394.153 726.03 393.981 732.437C393.797 737.803 393.994 743.3 394.112 748.681C391.841 748.772 389.457 748.677 387.176 748.633C386.915 737.061 387.174 724.657 387.214 713.024C382.276 712.707 376.062 712.954 371.011 713.034C370.931 711.006 370.955 709.006 370.968 706.978Z"/><path fill="#0146A8" d="M266.617 706.743C267.754 706.758 267.741 706.69 268.757 707.151C269.067 709.11 268.979 718.19 268.929 720.582C268.778 727.765 269.169 736.061 268.713 743.136C276.73 743.18 285.029 743.334 293.02 743.089L292.921 748.521C291.445 748.632 289.762 748.654 288.265 748.71L262.216 748.803C262.169 737.083 262.814 717.961 261.837 706.87L266.617 706.743Z"/><path fill="#0146A8" d="M429.927 707.008L436.945 707.001C436.883 715.963 436.872 724.925 436.911 733.887C436.911 738.258 437.07 744.075 436.717 748.294C434.649 748.509 432.34 748.616 430.245 748.754C429.48 735.456 430.601 720.551 429.927 707.008Z"/><path fill="#0146A8" d="M597.355 501.279C595.7 501.032 583.649 498.588 582.949 498.023C585.175 497.6 596.046 498.843 598.697 499.247L598.325 499.889L596.69 499.733L596.648 500.197L598.277 500.865L597.355 501.279Z"/><path fill="#FDFBFE" fill-opacity="0.062745102" d="M580.625 329.377L581.342 330.395C579.878 331.626 579.332 332.156 577.631 333.057C578.532 331.641 579.515 330.627 580.625 329.377Z"/></svg>