<?xml version="1.0" encoding="utf-8" ?><svg xmlns="http://www.w3.org/2000/svg" xmlns:xlink="http://www.w3.org/1999/xlink" width="3148" height="1312" viewBox="0 0 3148 1312"><path fill="#0263B0" d="M639.061 283.434L639.809 283.404C668.992 282.382 700.635 283.207 730.14 283.221L896.574 283.25L1010.2 283.335C1027.97 283.351 1045.69 283.284 1063.48 283.345C1077.33 283.393 1090.27 295.459 1080.16 307.356C1051.91 340.621 1018.72 371.354 987.789 402.138C970.017 419.828 950.319 437.208 923.899 437.9C896.984 438.876 868.809 437.82 841.84 437.817L666.232 438.002C618.776 438.129 577.789 443.637 535.38 466.06C490.912 489.57 462.82 521.372 428.383 556.854C399.011 586.871 369.422 616.674 339.619 646.262C319.133 667.614 298.457 688.783 277.593 709.767C255.835 731.676 218.342 777.403 186.093 777.971C140.821 778.768 94.542 779.028 49.2266 778.233C43.0691 778.125 37.1878 775.954 31.6878 773.417C22.0021 753.98 39.6875 745.128 51.7166 732.578C55.9163 728.196 60.5717 724.056 64.8903 719.72L143.085 641.039L294.292 488.058C342.152 439.239 388.804 385.977 443.647 344.855C501.398 301.553 568.661 289.071 639.061 283.434Z"/><path fill="#51BBA9" d="M1368.75 638.667C1459.85 632.113 1539.01 700.653 1545.56 791.752C1552.11 882.851 1483.56 962.008 1392.46 968.547C1301.37 975.087 1222.23 906.549 1215.68 815.461C1209.13 724.372 1277.67 645.221 1368.75 638.667ZM1384.87 884.144C1396.33 882.695 1408.87 879.819 1418.21 872.758C1471.71 832.291 1456.15 722.102 1378.39 723.401C1341.59 726.303 1324.69 744.403 1315.25 779.041C1301.51 829.488 1327.83 883.858 1384.87 884.144Z"/><path fill="#51BBA9" d="M1569.65 646.425C1587.44 645.898 1605.85 645.618 1623.55 647.257C1633.06 648.137 1638.36 651.649 1642.46 660.31C1658.47 694.113 1669.79 730.256 1683.44 765.061C1684.71 768.31 1684.67 771.631 1686 775.214C1698.12 771.555 1723.5 673.724 1736.92 655.837C1740.87 650.57 1746.18 646.194 1752.95 645.502C1758.06 644.98 1763.4 646.556 1767.29 649.926C1778.77 659.88 1774.68 676.028 1776.02 689.294C1776.64 695.503 1804.32 774.564 1806.03 775.968C1810.96 773.832 1814.95 765.859 1818.38 760.868C1826.55 748.967 1834.06 737.217 1840.56 724.509C1847.82 710.313 1860.89 658.458 1870.22 649.908C1881.54 644.932 1930.87 644.294 1942.71 648.856C1946.36 650.261 1949.64 652.712 1951.14 656.422C1954.48 664.617 1895.87 789.586 1888.01 806.056C1886.94 809.327 1885.07 813.078 1883.7 816.325C1866.26 857.7 1850.23 899.63 1831.56 940.487C1828.41 947.377 1825.18 958.01 1816.97 960.557C1811.8 962.158 1799.36 963.446 1794.47 958.466C1787.8 945.093 1746.9 823.838 1741.2 820.993C1736.9 825.324 1733.89 835.513 1731.21 841.983C1722.66 862.809 1714.36 883.741 1706.34 904.776C1701.97 915.973 1686.17 962.763 1673.78 963.737C1642.19 966.221 1632.76 900.508 1626.94 877.422C1622.19 858.397 1616.11 839.728 1608.75 821.555C1590.51 775.492 1569.87 729.6 1551.24 683.587C1539.84 655.418 1534.66 648.372 1569.65 646.425Z"/><path fill="#0263B0" d="M2895.34 646.411C2903.3 645.92 2912.28 646.023 2920.45 646.04C2967.85 646.135 3034.65 646.083 3057.93 696.855C3065.43 713.206 3070.11 729.978 3067.45 748.016C3063.06 777.723 3046.3 793.462 3023.76 810.284C3041.37 822.364 3044.99 830.059 3057.33 846.93C3072.3 867.162 3088.92 887.037 3109.06 902.298C3113.98 906.03 3139.71 915.564 3140.18 918.896C3142.15 932.766 3127.89 953.823 3121.83 966.562C3100.27 967.09 3081.89 959.255 3064.95 946.572C3025.59 916.298 3013.41 868.918 2972.1 842.722C2961.9 836.247 2947.58 835.582 2935.69 834.798C2936.07 853.9 2939.11 944.715 2932.22 956.095C2931.1 957.94 2929.27 958.837 2927.23 959.292C2917.82 961.389 2892.35 961.642 2884.49 956.405C2882.75 955.247 2882.58 953.517 2882.21 951.536C2879.08 934.486 2880.33 916.081 2880.34 898.825L2880.28 829.641L2880.26 723.724C2880.21 703.516 2880.04 683.305 2880.3 663.099C2880.49 649.03 2881.87 648.193 2895.34 646.411ZM2940.95 697.812C2936.88 698.657 2937.61 697.838 2935.65 700.407C2935.35 710.698 2933.74 779.141 2936.59 783.104C2955.83 782.836 2978.18 783.583 2993.35 769.926C3001.37 762.788 3006.23 752.755 3006.86 742.035C3007.36 731.611 3003.66 721.422 2996.58 713.752C2981.93 697.593 2960.48 698.85 2940.95 697.812Z"/><path fill="#FFFEFE" fill-opacity="0.011764706" d="M2936.59 783.104C2933.74 779.141 2935.35 710.698 2935.65 700.407C2937.61 697.838 2936.88 698.657 2940.95 697.812C2939.74 700.101 2939.56 699.556 2939.62 701.622C2940.31 725.659 2941.07 760.269 2936.59 783.104Z"/><path fill="#51BBA9" d="M637.684 482.402C662.569 480.304 699.114 482.229 724.977 482.251C763.318 482.284 807.161 480.234 844.858 483.735C840.955 489.15 824.976 505.565 819.466 511.442C796.763 535.943 773.24 559.673 748.939 582.59C740.629 590.318 733.791 596.843 722.06 598.374C693.609 602.086 663.913 599.885 635.239 598.811C612.406 618.893 585.037 650.056 561.978 672.348C551.06 683.6 536.909 701.161 520.895 699.713C504.125 698.198 390.554 702.076 383.608 695.302C384.342 691.837 386.977 688.392 389.284 685.749C431.05 637.448 477.223 592.228 520.228 545.315C561.835 499.925 576.098 487.492 637.684 482.402Z"/><path fill="#0263B0" d="M2690.43 644.57C2690.99 644.433 2691.56 644.308 2692.12 644.194C2706.8 641.289 2712.01 649.845 2718.29 661.362C2724.26 672.296 2728.14 683.863 2733.44 694.919L2785.21 803.692L2838.09 914.975C2859.91 961.622 2868.92 959.141 2814.67 960.31C2775.01 961.165 2784 926.103 2762.4 904.897C2749.48 892.209 2722.16 895.172 2705.75 895.495C2689.41 895.659 2672.49 895.206 2656.04 895.418C2606.4 896.055 2631.03 958.809 2585.66 960.297C2522.95 962.355 2538.52 953.732 2560.8 908.979L2598.8 830.986C2600.79 826.816 2603.47 823.399 2605.16 819.81C2607.44 814.931 2609.4 808.899 2611.67 803.828C2633.03 756.116 2655.37 708.847 2678.66 662.052C2681.8 655.866 2685.02 648.897 2690.43 644.57ZM2695.75 849.026C2709.85 848.927 2726.09 849.182 2739.98 848.431C2733.7 835.274 2708.92 758.549 2697.94 754.469C2688.49 774.298 2679.99 793.838 2671.32 814.005C2666.72 824.685 2659.27 835.967 2655.62 846.857C2658.02 850.59 2689.29 849.098 2695.75 849.026Z"/><path fill="#0263B0" d="M2319.21 813.429C2318.9 845.296 2318.42 877.161 2317.76 909.022C2317.61 922.008 2318.21 934.961 2318.07 948.015C2318.55 960.103 2299.09 961.182 2290.41 960.91C2279.63 960.573 2260.05 962.066 2259.96 947.003C2259.55 883.557 2258.37 819.989 2257.77 756.581C2257.49 726.345 2260.03 695.611 2259.24 665.273C2259.29 661.427 2259.22 653.773 2260.95 650.544C2270.35 644.222 2316.73 644.095 2317.22 652.704C2318.62 677.617 2319.63 736.732 2319.8 760.913C2364.33 760.957 2418.36 762.527 2462.08 760.845C2461.62 739.321 2461.5 717.791 2461.72 696.263C2461.75 686.824 2460.14 658.698 2465.76 651.459C2470.63 645.187 2507.55 644.29 2513.76 650.954C2515.75 653.089 2515.31 666.385 2515.57 670.056C2516.49 736.699 2515.37 803.549 2514.86 870.206L2514.39 923.761C2514.35 930.621 2516.18 954.486 2510.39 957.253C2500.34 962.055 2468.68 961.556 2460.77 953.445C2461.64 941.635 2460.84 818.529 2459.17 814.577L2455.84 813.318C2442.77 814.4 2423.36 813.739 2409.8 813.669C2379.61 813.36 2349.41 813.28 2319.21 813.429Z"/><path fill="#51BBA9" d="M916.692 646.539L917.369 646.511C925.221 646.192 937.77 646.682 945.348 646.341C998.208 643.967 980.553 660.645 983.363 699.46C984.474 714.799 981.68 720.486 964.282 722.276C938.848 724.894 912.285 723.55 886.347 722.585C885.867 735.214 886.028 747.386 886.162 760.003C900.763 760.455 941.021 757.701 952.448 764.395C961.012 771.464 960.434 824.09 953.826 828.845C943.154 836.525 898.972 832.736 885.611 832.871L885.696 918.656C884.424 949.154 893.864 963.922 853.616 959.981C841.857 958.83 791.868 966.773 790.189 949.889C789.067 938.608 789.161 918.657 789.086 907.21L789.01 827.839L788.952 718.999C788.982 699.668 788.992 680.311 789.396 661.011C789.302 651.391 793.43 648.023 802.881 647.209C818.311 645.879 834.403 646.588 849.894 646.774C872.159 647.116 894.43 647.037 916.692 646.539Z"/><path fill="#51BBA9" d="M1020.06 647.412C1033.82 646.015 1097.43 644.874 1103.08 651.276C1109.79 658.88 1107.86 745.363 1107.85 759L1108.51 885.463C1127.94 884.915 1199.92 881.153 1211.97 889.909C1212.78 890.497 1213 891.527 1213.1 892.485C1214.39 904.62 1206.57 947.813 1198.61 956.434C1184.21 963.404 1156.63 959.758 1140.12 959.4C1105.36 958.647 1070.99 961.96 1036.34 960.505C1029.36 960.212 1014.41 959.214 1013.37 950.807C1009.91 932.962 1011.06 914.447 1011.07 896.149L1011.17 825.869L1011.33 714.7C1011.34 705.358 1010.45 655.413 1012.96 650.949C1015.34 648.391 1016.71 648.282 1020.06 647.412Z"/><path fill="#0263B0" d="M2105.65 644.656C2108.1 644.429 2110.56 644.225 2113.01 644.043C2144.87 641.718 2198.07 652.135 2222.41 673.185C2225.82 689.019 2224.09 697.778 2222.07 713.588C2218.84 738.867 2185.68 713.29 2171.94 707.153C2164.37 703.805 2156.49 701.223 2148.41 699.447C2091.7 686.849 2032.68 715.101 2019.83 774.75C1996.52 882.918 2103.06 949.805 2194.14 891.72C2197.5 889.256 2200.56 886.463 2204.6 885.835C2216.51 888.517 2222.7 927.985 2223.09 938.904C2199.62 952.255 2173.78 960.934 2147.02 964.463C2056.11 976.862 1968.83 924.422 1959.14 829.178C1948.46 724.092 2002.16 657.95 2105.65 644.656Z"/><path fill="#0263B0" fill-opacity="0.92156863" d="M3081.5 614.421C3093.13 613.43 3104.38 618.812 3110.91 628.485C3117.43 638.159 3118.21 650.607 3112.93 661.016C3107.66 671.425 3097.16 678.162 3085.51 678.623C3068.04 679.313 3053.21 665.926 3052.13 648.478C3051.04 631.029 3064.08 615.906 3081.5 614.421ZM3066.57 665.358C3074.97 670.554 3079.83 673.269 3090.09 671.32C3118.77 660.712 3115.8 616.764 3077.8 621.454C3057.49 629.063 3056.03 648.577 3066.57 665.358Z"/><path fill="#0263B0" d="M3079.82 629.381C3086.15 629.176 3096.97 629.707 3099.1 636.616C3098.55 640.815 3095.3 645.059 3092.92 648.733C3092.89 654.795 3101.52 656.691 3099 662.474C3096.04 663.188 3093.83 661.945 3090.84 660.869C3089.31 657.601 3089.02 657.1 3086.61 654.423C3078.71 651.325 3081.04 660.362 3075.11 661.848C3070.6 657.764 3070.71 639.116 3072.38 632.772C3075.28 629.562 3074.81 630.476 3079.82 629.381Z"/><path fill="#FFFEFE" fill-opacity="0.0078431377" d="M2455.84 813.318L2459.17 814.577C2460.84 818.529 2461.64 941.635 2460.77 953.445C2455.93 947.657 2458.22 879.764 2457.14 866.789C2455.92 852.181 2455.25 827.928 2455.84 813.318Z"/></svg>